<?xml version="1.0" encoding="UTF-8"?>
<svg id="uuid-5a0bbedd-f408-4504-bb63-af4d501bafde" data-name="Capa 5" xmlns="http://www.w3.org/2000/svg" width="250" height="35.605" viewBox="0 0 250 35.605">
  <path d="m35.095,1.241c-2.356-1.95-5.768-1.544-7.636.812-1.869,2.356-1.544,5.849.812,7.718,2.356,1.95,5.768,1.544,7.636-.812,1.868-2.356,1.544-5.849-.812-7.718Zm-6.499,16.248c-1.462.731-3.331.65-4.874-.162l-4.224,5.768c.569.65.812,1.381.894,2.193,0,.731-.162,1.462-.569,2.112-1.056,1.706-3.25,2.193-4.956,1.056-.162-.081-.325-.244-.487-.406l-.162-.162c-.081-.081-.162-.244-.244-.325,0,0,0-.081-.081-.162l-.244-.487v-.163c0-.162-.081-.244-.162-.406v-.162c0-.162,0-.325-.081-.569v-.65c0-.325,0-.487.081-.65v-.162c0-.162.162-.406.244-.569l-3.412-2.6-1.056,1.462-3.899-3.006,2.925-3.981,3.899,3.006-1.056,1.462,3.493,2.681c1.056-.894,2.6-1.137,3.899-.406l4.224-5.687c-1.706-1.706-2.112-4.387-.894-6.58.244-.406.569-.812.894-1.137-2.275-1.625-5.118-2.518-8.124-2.518C6.499,6.196,0,12.776,0,20.9s6.418,14.704,14.461,14.704c7.961,0,14.461-6.499,14.542-14.623,0-1.219-.162-2.356-.406-3.412v-.081Z"/>
  <g>
    <path d="m52.189,26.318c-3.413,0-5.644-2.757-5.644-6.169,0-3.282,2.363-6.038,5.644-6.038,1.969,0,3.544.919,4.988,2.231l2.756-3.15c-1.838-1.838-1.706-3.019-7.613-3.019s-10.107,4.594-10.107,10.238l.131-.131c0,5.644,4.2,10.107,9.845,10.107,3.675,0,5.907-1.444,7.876-3.544l-2.757-2.756c-1.575,1.313-1.706,2.231-5.119,2.231Z"/>
    <polygon points="75.554 18.311 67.678 18.311 67.678 10.567 63.477 10.567 63.477 30.124 67.678 30.124 67.678 22.249 75.554 22.249 75.554 30.124 79.754 30.124 79.754 10.567 75.554 10.567 75.554 18.311"/>
    <polygon points="89.073 22.118 98.131 22.118 98.131 18.311 89.073 18.311 89.073 14.373 99.443 14.373 99.443 10.567 84.873 10.567 84.873 29.993 99.574 29.993 99.574 26.187 89.073 26.187 89.073 22.118"/>
    <path d="m112.569,26.318c-3.413,0-5.644-2.757-5.644-6.169,0-3.282,2.363-6.038,5.644-6.038,1.969,0,3.544.919,4.988,2.231l2.756-3.15c-1.838-1.838-1.706-3.019-7.613-3.019s-10.107,4.594-10.107,10.238l.131-.131c0,5.644,4.2,10.107,9.845,10.107,3.675,0,5.907-1.444,7.876-3.544l-2.757-2.756c-1.575,1.313-1.706,2.231-5.119,2.231Z"/>
    <polygon points="140.922 10.567 135.803 10.567 127.927 19.099 127.927 10.567 123.726 10.567 123.726 30.124 127.927 30.124 127.927 24.086 130.158 21.724 136.196 30.124 141.315 30.124 133.046 18.836 140.922 10.567"/>
    <path d="m160.48,10.567h-7.876l-.131.131v19.558h4.2v-5.907h3.282c4.463,0,7.876-2.363,7.876-6.957,0-4.069-2.756-6.826-7.351-6.826Zm-.263,9.845h-3.282v-6.038h3.282c2.1,0,3.413,1.05,3.413,3.019,0,1.706-1.313,3.019-3.413,3.019Z"/>
    <path d="m180.825,10.173c-5.907,0-10.238,4.594-10.238,10.238s4.332,10.107,10.238,10.107,10.238-4.594,10.238-10.238-4.332-10.107-10.238-10.107Zm.131,16.276c-3.544,0-5.907-2.756-5.907-6.169,0-3.282,2.231-6.038,5.776-6.038s5.907,2.756,5.907,6.169c0,3.282-2.231,6.038-5.776,6.038Z"/>
    <rect x="195.264" y="10.567" width="4.2" height="19.558"/>
    <polygon points="217.841 22.643 208.784 10.567 204.846 10.567 204.846 30.124 209.046 30.124 209.046 17.655 218.366 30.124 222.041 30.124 222.041 10.567 217.841 10.567 217.841 22.643"/>
    <polygon points="225.717 14.504 231.623 14.504 231.623 30.124 235.824 30.124 235.824 14.504 241.73 14.504 241.73 10.567 225.717 10.567 225.717 14.504"/>
    <polygon points="244.487 10.96 245.275 10.96 245.275 13.192 245.8 13.192 245.8 10.96 246.587 10.96 246.587 10.567 244.487 10.567 244.487 10.96"/>
    <polygon points="249.475 10.435 248.687 11.748 247.9 10.435 247.375 10.435 247.375 13.192 247.9 13.192 247.9 11.223 248.687 12.535 248.819 12.535 249.606 11.223 249.606 13.192 250 13.192 250 10.435 249.475 10.435"/>
  </g>
</svg>