<svg xmlns="http://www.w3.org/2000/svg" width="250" height="35.605" data-name="Capa 5" viewBox="0 0 250 35.605" fill="currentColor"><path d="M35.095 1.241c-2.356-1.95-5.768-1.544-7.636.812s-1.544 5.849.812 7.718c2.356 1.95 5.768 1.544 7.636-.812s1.544-5.849-.812-7.718m-6.499 16.248c-1.462.731-3.331.65-4.874-.162l-4.224 5.768c.569.65.812 1.381.894 2.193 0 .731-.162 1.462-.569 2.112-1.056 1.706-3.25 2.193-4.956 1.056-.162-.081-.325-.244-.487-.406l-.162-.162c-.081-.081-.162-.244-.244-.325 0 0 0-.081-.081-.162l-.244-.487v-.163c0-.162-.081-.244-.162-.406v-.162c0-.162 0-.325-.081-.569v-.65c0-.325 0-.487.081-.65v-.162c0-.162.162-.406.244-.569l-3.412-2.6-1.056 1.462-3.899-3.006 2.925-3.981 3.899 3.006-1.056 1.462 3.493 2.681c1.056-.894 2.6-1.137 3.899-.406l4.224-5.687c-1.706-1.706-2.112-4.387-.894-6.58.244-.406.569-.812.894-1.137-2.275-1.625-5.118-2.518-8.124-2.518C6.499 6.196 0 12.776 0 20.9s6.418 14.704 14.461 14.704c7.961 0 14.461-6.499 14.542-14.623 0-1.219-.162-2.356-.406-3.412v-.081ZM52.189 26.318c-3.413 0-5.644-2.757-5.644-6.169 0-3.282 2.363-6.038 5.644-6.038 1.969 0 3.544.919 4.988 2.231l2.756-3.15c-1.838-1.838-1.706-3.019-7.613-3.019s-10.107 4.594-10.107 10.238l.131-.131c0 5.644 4.2 10.107 9.845 10.107 3.675 0 5.907-1.444 7.876-3.544l-2.757-2.756c-1.575 1.313-1.706 2.231-5.119 2.231M75.554 18.311h-7.876v-7.744h-4.201v19.557h4.201v-7.875h7.876v7.875h4.2V10.567h-4.2zM89.073 22.118h9.058v-3.807h-9.058v-3.938h10.37v-3.806h-14.57v19.426h14.701v-3.806H89.073zM112.569 26.318c-3.413 0-5.644-2.757-5.644-6.169 0-3.282 2.363-6.038 5.644-6.038 1.969 0 3.544.919 4.988 2.231l2.756-3.15c-1.838-1.838-1.706-3.019-7.613-3.019s-10.107 4.594-10.107 10.238l.131-.131c0 5.644 4.2 10.107 9.845 10.107 3.675 0 5.907-1.444 7.876-3.544l-2.757-2.756c-1.575 1.313-1.706 2.231-5.119 2.231M140.922 10.567h-5.119l-7.876 8.532v-8.532h-4.201v19.557h4.201v-6.038l2.231-2.362 6.038 8.4h5.119l-8.269-11.288zM160.48 10.567h-7.876l-.131.131v19.558h4.2v-5.907h3.282c4.463 0 7.876-2.363 7.876-6.957 0-4.069-2.756-6.826-7.351-6.826Zm-.263 9.845h-3.282v-6.038h3.282c2.1 0 3.413 1.05 3.413 3.019 0 1.706-1.313 3.019-3.413 3.019M180.825 10.173c-5.907 0-10.238 4.594-10.238 10.238s4.332 10.107 10.238 10.107 10.238-4.594 10.238-10.238-4.332-10.107-10.238-10.107m.131 16.276c-3.544 0-5.907-2.756-5.907-6.169 0-3.282 2.231-6.038 5.776-6.038s5.907 2.756 5.907 6.169c0 3.282-2.231 6.038-5.776 6.038M195.264 10.567h4.2v19.558h-4.2zM217.841 22.643l-9.057-12.076h-3.938v19.557h4.2V17.655l9.32 12.469h3.675V10.567h-4.2zM225.717 14.504h5.906v15.62h4.201v-15.62h5.906v-3.937h-16.013zM244.487 10.96h.788v2.232h.525V10.96h.787v-.393h-2.1zM249.475 10.435l-.788 1.313-.787-1.313h-.525v2.757h.525v-1.969l.787 1.312h.132l.787-1.312v1.969H250v-2.757z"/></svg>