<svg xmlns="http://www.w3.org/2000/svg" width="250" height="132.608" data-name="Capa 2" viewBox="0 0 250 132.608" fill="currentColor"><path d="M70.706 131.006h10.946V87.563H70.706zm88.345-44.255c-12.464.276-22.345 10.604-22.069 23.069s10.604 22.345 23.069 22.069a34.2 34.2 0 0 0 9.997-1.558v-11.643a19.6 19.6 0 0 1-9.229 2.256 11 11 0 0 1-1.014 0c-6.4-.28-11.361-5.695-11.081-12.095s5.695-11.361 12.095-11.081c3.216-.03 6.389.745 9.229 2.256V88.31a33.9 33.9 0 0 0-9.997-1.558 24 24 0 0 0-1 0Zm-114.418 0c-12.464.276-22.345 10.604-22.069 23.069s10.604 22.345 23.068 22.069a33.9 33.9 0 0 0 9.997-1.558v-11.643a19.4 19.4 0 0 1-9.207 2.256q-.507.023-1.013 0c-6.4-.28-11.361-5.695-11.081-12.095s5.695-11.361 12.095-11.081c3.21-.037 6.377.739 9.207 2.256V88.31a33.6 33.6 0 0 0-9.997-1.558 24 24 0 0 0-1 0Zm159.901-.044-.381.003c-12.674.212-22.776 10.658-22.564 23.331s10.658 22.776 23.331 22.564 22.776-10.658 22.564-23.331q.006-.467-.008-.934c-.362-12.309-10.634-21.994-22.943-21.633Zm11.284 22.75c-.088 6.32-5.282 11.372-11.602 11.284s-11.372-5.282-11.284-11.602 5.282-11.372 11.602-11.284h.134c6.232.073 11.225 5.185 11.152 11.417l-.001.183Zm-99.89-4.695-3.023-.949c-1.805-.565-5.01-1.491-5.01-4.131 0-2.089 2.256-3.566 6.77-3.566 2.9.116 5.777.563 8.576 1.333l-.048-9.229a46.4 46.4 0 0 0-10.706-1.399c-10.085 0-16.18 5.419-16.18 13.541 0 7.199 5.19 10.787 11.285 12.707l2.256.768c2.617.86 4.873 1.831 4.873 4.312s-2.507 4.061-7.944 4.061a42.4 42.4 0 0 1-10.359-1.602v9.993a69 69 0 0 0 11.813 1.174c8.457 0 18.056-3.655 18.056-14.578a13.09 13.09 0 0 0-10.359-12.433ZM5.133 35.76A5.46 5.46 0 0 0 0 40.893v11.396a5.46 5.46 0 0 0 10.901 0V40.893a5.46 5.46 0 0 0-5.768-5.133m30.219 21.973a5.44 5.44 0 0 0 5.44-5.44V25.909a5.44 5.44 0 1 0-10.88 0v26.384a5.44 5.44 0 0 0 5.44 5.44M65.222 0a5.44 5.44 0 0 0-5.44 5.44v57.774a5.44 5.44 0 1 0 10.88 0V5.44A5.44 5.44 0 0 0 65.222 0m35.342 52.294V25.91a5.44 5.44 0 1 0-10.88 0v26.384a5.44 5.44 0 1 0 10.88 0m24.778-17.173a5.438 5.438 0 0 0-5.774 5.774v11.396a5.438 5.438 0 1 0 10.854 0V40.895a5.44 5.44 0 0 0-5.08-5.774m29.12 22.943a5.437 5.437 0 0 0 5.773-5.774V25.91a5.438 5.438 0 0 0-10.853 0v26.38a5.437 5.437 0 0 0 5.08 5.773Zm35.764 5.847a5 5 0 0 0 0-.694V5.443a5.438 5.438 0 0 0-10.853 0v57.774a5.438 5.438 0 1 0 10.853.693Zm24.769-6.487a5.46 5.46 0 0 0 5.133-5.133v-26.38a5.46 5.46 0 0 0-10.901 0v26.38a5.46 5.46 0 0 0 5.768 5.133m29.915-22.303a5.437 5.437 0 0 0-5.773 5.774v11.396a5.438 5.438 0 1 0 10.853-.001V40.894a5.437 5.437 0 0 0-5.08-5.773m-5.892 90.832h1.964v5.054h.79v-5.054h1.942v-.653h-4.696zm8.077 4.016h-.022l-1.717-4.67h-1.24l.004 5.711h.79v-4.696h.044l1.694 4.696h.738l1.739-4.696h.044v4.696h.812v-5.711h-1.218l-1.669 4.67Z"/></svg>