<?xml version="1.0" encoding="UTF-8"?>
<svg id="uuid-d3d17f72-94ff-47f2-8c6d-71dbdec1622f" data-name="Capa 2" xmlns="http://www.w3.org/2000/svg" width="250" height="132.608" viewBox="0 0 250 132.608">
  <path d="m70.706,131.006h10.946v-43.443h-10.946v43.443Zm88.345-44.255c-12.464.276-22.345,10.604-22.069,23.069s10.604,22.345,23.069,22.069c3.391-.021,6.76-.546,9.997-1.558v-11.643c-2.845,1.498-6.014,2.272-9.229,2.256-.338.015-.676.015-1.014,0-6.4-.28-11.361-5.695-11.081-12.095.28-6.4,5.695-11.361,12.095-11.081,3.216-.03,6.389.745,9.229,2.256v-11.714c-3.235-1.017-6.605-1.542-9.997-1.558-.333-.007-.667-.007-1,0Zm-114.418,0c-12.464.276-22.345,10.604-22.069,23.069s10.604,22.345,23.068,22.069c3.392-.016,6.761-.541,9.997-1.558v-11.643c-2.835,1.503-5.998,2.278-9.207,2.256-.338.015-.676.015-1.013,0-6.4-.28-11.361-5.695-11.081-12.095.28-6.4,5.695-11.361,12.095-11.081,3.21-.037,6.377.739,9.207,2.256v-11.714c-3.235-1.021-6.605-1.546-9.997-1.558-.333-.007-.667-.007-1,0Zm159.901-.044c-.127,0-.254.001-.381.003-12.674.212-22.776,10.658-22.564,23.331s10.658,22.776,23.331,22.564,22.776-10.658,22.564-23.331c.004-.311.001-.623-.008-.934-.362-12.309-10.634-21.994-22.943-21.633Zm11.284,22.75c-.088,6.32-5.282,11.372-11.602,11.284-6.32-.088-11.372-5.282-11.284-11.602.088-6.32,5.282-11.372,11.602-11.284.045,0,.089,0,.134,0,6.232.073,11.225,5.185,11.152,11.417,0,.061,0,.122-.001.183Zm-99.89-4.695l-3.023-.949c-1.805-.565-5.01-1.491-5.01-4.131,0-2.089,2.256-3.566,6.77-3.566,2.9.116,5.777.563,8.576,1.333l-.048-9.229c-3.502-.881-7.095-1.351-10.706-1.399-10.085,0-16.18,5.419-16.18,13.541,0,7.199,5.19,10.787,11.285,12.707l2.256.768c2.617.86,4.873,1.831,4.873,4.312s-2.507,4.061-7.944,4.061c-3.506-.103-6.985-.641-10.359-1.602v9.993c3.896.731,7.849,1.124,11.813,1.174,8.457,0,18.056-3.655,18.056-14.578-.171-6.038-4.451-11.175-10.359-12.433ZM5.133,35.76c-2.766.161-4.972,2.368-5.133,5.133v11.396c.175,3.01,2.758,5.309,5.768,5.133,2.766-.161,4.972-2.368,5.133-5.133v-11.396c-.175-3.01-2.758-5.309-5.768-5.133Zm30.219,21.973c3.004,0,5.44-2.435,5.44-5.44v-26.384c0-3.004-2.435-5.44-5.44-5.44s-5.44,2.435-5.44,5.44v26.384c0,3.004,2.435,5.44,5.44,5.44ZM65.222,0c-3.004,0-5.44,2.435-5.44,5.44v57.774c0,3.004,2.435,5.44,5.44,5.44s5.44-2.435,5.44-5.44V5.44c0-3.004-2.435-5.44-5.44-5.44Zm35.342,52.294v-26.384c0-3.004-2.435-5.44-5.44-5.44s-5.44,2.435-5.44,5.44v26.384c0,3.004,2.435,5.44,5.44,5.44s5.44-2.435,5.44-5.44Zm24.778-17.173c-2.997-.192-5.582,2.083-5.774,5.08-.015.231-.015.463,0,.694v11.396c-.192,2.997,2.083,5.582,5.08,5.774s5.582-2.083,5.774-5.08c.015-.231.015-.463,0-.694v-11.396c.192-2.997-2.083-5.582-5.08-5.774Zm29.12,22.943c2.997.192,5.582-2.083,5.773-5.08.015-.231.015-.463,0-.694v-26.38c-.192-2.997-2.776-5.271-5.773-5.08-2.73.174-4.905,2.35-5.08,5.08v26.38c-.192,2.997,2.083,5.582,5.08,5.773Zm35.764,5.847c.015-.231.015-.463,0-.694V5.443c-.192-2.997-2.776-5.271-5.773-5.08-2.73.174-4.905,2.35-5.08,5.08v57.774c-.192,2.997,2.083,5.582,5.08,5.773s5.582-2.083,5.773-5.08Zm24.769-6.487c2.766-.161,4.972-2.368,5.133-5.133v-26.38c-.175-3.01-2.758-5.309-5.768-5.133-2.766.161-4.972,2.368-5.133,5.133v26.38c.175,3.01,2.758,5.309,5.768,5.133Zm29.915-22.303c-2.997-.192-5.582,2.083-5.773,5.08-.015.231-.015.463,0,.694v11.396c-.192,2.997,2.083,5.582,5.08,5.773s5.582-2.083,5.773-5.08c.015-.231.015-.463,0-.694v-11.396c.192-2.997-2.083-5.582-5.08-5.773Zm-5.892,90.832h1.964v5.054h.79v-5.054h1.942v-.653h-4.696v.653Zm8.077,4.016h-.022l-1.717-4.67h-1.24l.004,5.711h.79v-4.696h.044l1.694,4.696h.738l1.739-4.696h.044v4.696h.812v-5.711h-1.218l-1.669,4.67Z"/>
</svg>