<?xml version="1.0" encoding="UTF-8"?>
<svg id="uuid-b565813c-1871-423b-b2b0-609148e7278c" data-name="Capa 3" xmlns="http://www.w3.org/2000/svg" width="250" height="37.404" viewBox="0 0 250 37.404">
  <path d="m33.197,9.779L16.249,0,0,9.379v18.681l16.249,9.338v.007l16.484-9.468v-10.809l-8.225,4.727v-7.077l8.689-4.997ZM15.529,2.032v7.582l-6.834,3.954-6.598-3.788L15.529,2.032Zm-.007,9.192v7.082l-6.134,3.539v-7.075l6.134-3.546Zm-14.123-.235l6.598,3.787v7.879l-6.598,3.815v-15.481Zm.726,16.682l6.571-3.798,6.847,3.932.014,7.582-13.431-7.716Zm14.118-1.083v.007l-6.155-3.539,6.155-3.552,6.169,3.552-6.162,3.532h-.007Zm.735-8.28v-7.084l6.134,3.546v7.077l-6.134-3.539Zm14.356,1.219v7.588l-14.386,8.266.014-7.582v-.007l14.373-8.266Zm-7.523-5.959l-6.834-3.954h-.002s0-7.581,0-7.581l13.433,7.746-6.598,3.788Zm224.333-4.513l-.013.011c0-.797-.583-1.26-1.488-1.26h-1.692v3.805h.845v-1.224h.667l.811,1.224h.975l-.929-1.368c.488-.178.824-.559.824-1.189Zm-1.525.607h-.847v-1.118h.823c.417,0,.667.191.667.559l.012.013c0,.321-.226.546-.655.546Zm-7.657-2.305h-6.325l-9.648,10.38V7.354h-5.229v23.756h5.229v-7.265l2.751-2.853,7.373,10.107h6.289l-10.125-13.674,9.684-10.071Zm-66.857-.178h-.012l-10.195,23.924h5.337l2.179-5.326h10.065l2.179,5.326h5.468l-10.195-23.924h-4.825Zm-.811,13.984l3.157-7.705,3.157,7.705h-6.314Zm40.034-5.885v-.072c0-2.247-.713-4.113-2.036-5.434-1.56-1.57-3.906-2.415-6.931-2.415h-10.875v23.758h5.229v-7.598h4.11l5.096,7.598h6.122l-5.812-8.478c3.025-1.117,5.097-3.531,5.097-7.359Zm-5.3.259c0,1.999-1.464,3.354-4.014,3.354v.011h-5.3v-6.825h5.205c2.547,0,4.109,1.153,4.109,3.388v.072ZM51.58,28.043c-4.771,0-8.507-4.071-8.507-9.278s3.655-9.136,8.507-9.136c2.479,0,4.594.887,6.826,2.876l2.21-2.556c-1.857-1.727-4.406-3.443-8.989-3.443-6.956,0-12.196,5.408-12.196,12.391s5.169,12.247,12.017,12.249l-.021.023c3.854,0,6.569-1.148,9.342-3.941l-2.174-2.225c-2.009,1.836-3.995,3.042-7.014,3.042ZM246.426,6.234c-2.014,0-3.584,1.629-3.584,3.579s1.561,3.567,3.572,3.567,3.586-1.629,3.586-3.579-1.56-3.567-3.574-3.567Zm-.012,6.755c-1.798,0-3.154-1.415-3.154-3.174s1.356-3.187,3.166-3.187,3.157,1.415,3.157,3.163v.011c0,1.759-1.371,3.187-3.169,3.187Zm-93.349,8.747c3.443-1.043,5.334-3.597,5.334-7.216,0-2.025-.634-3.776-1.834-5.082-1.506-1.559-3.759-2.374-6.522-2.374h-10.102v24.105h3.317v-8.701h5.821l5.799,8.701h3.873l-6.253-9.265.566-.168Zm-9.807-2.289v-9.265h6.445c3.362,0,5.3,1.702,5.3,4.651,0,2.804-2.06,4.614-5.267,4.614h-6.477Zm-68.555-.934l-7.256-11.447h-4.151l9.59,14.623v9.482h3.562l.036-9.697,9.554-14.407h-3.995l-7.339,11.447Zm31.311.515l-.985-.324.924-.468c2.309-1.174,3.379-2.853,3.379-5.25,0-1.534-.51-2.793-1.568-3.836-1.386-1.366-3.562-2.085-6.309-2.085h-10.916v24.105h11.267c5.592,0,8.935-2.421,8.935-6.484,0-2.817-1.458-4.555-4.728-5.657Zm-11.986-8.941h6.845c3.062,0,4.898,1.378,4.898,3.68,0,2.433-1.896,3.823-5.215,3.823h-6.528v-7.503Zm7.828,18.074h-7.828v-7.718h7.499c3.647,0,5.652,1.402,5.652,3.859s-1.932,3.859-5.324,3.859Zm17.316-7.624h12.035v-3.057h-12.035v-7.359h13.578v-3.057h-16.953v24.105h17.125v-3.044h-13.751v-7.588Z"/>
</svg>