<?xml version="1.0" encoding="UTF-8"?>
<svg id="uuid-d5feb28d-ad48-4006-a10e-d4b1b87913c7" data-name="Capa 5" xmlns="http://www.w3.org/2000/svg" width="250" height="49.566" viewBox="0 0 250 49.566">
  <g>
    <g>
      <path d="m49.2,20.694c-.957-1.259-2.184-2.296-3.651-3.061-1.467-.765-3.141-1.164-4.974-1.164-1.738,0-3.332.335-4.719,1.004-1.387.654-2.583,1.562-3.555,2.694s-1.738,2.455-2.264,3.938-.797,3.061-.797,4.719c0,1.786.255,3.46.749,4.958.494,1.499,1.244,2.822,2.232,3.89.973,1.084,2.2,1.945,3.603,2.535,1.419.606,3.061.909,4.894.909,1.259,0,2.487-.175,3.635-.51,1.164-.351,2.216-.861,3.157-1.546s1.754-1.531,2.407-2.519c.67-1.004,1.148-2.152,1.403-3.412l.064-.303h-5.277l-.064.159c-.43,1.212-1.068,2.136-1.929,2.742s-2.009.909-3.428.909c-1.02,0-1.913-.175-2.647-.526s-1.339-.829-1.817-1.419-.845-1.291-1.084-2.089c-.223-.717-.335-1.483-.367-2.248h16.086c.415,0,.765-.319.813-.733.128-1.562,0-3.093-.399-4.56-.415-1.642-1.116-3.109-2.073-4.368Zm-14.396,5.835c.048-.733.207-1.419.478-2.041.303-.701.701-1.323,1.196-1.849.494-.51,1.084-.941,1.786-1.228.686-.287,1.467-.446,2.312-.446s1.562.159,2.216.478,1.228.749,1.69,1.275.829,1.148,1.1,1.849c.239.638.399,1.291.462,1.977l-11.24-.016h0Z"/>
      <path d="m73.879,17.091h0l-4.607.016-.048.175-5.102,15.927c-.048.159-.191.223-.303.223-.048,0-.239-.016-.303-.223l-5.309-15.943-.048-.175h-4.863c-.271,0-.51.128-.67.351-.159.223-.191.494-.096.749l7.924,21.762c.112.319.43.526.765.526h4.879c.335,0,.654-.207.765-.542l7.78-21.762c.096-.255.048-.526-.096-.749-.159-.207-.415-.335-.67-.335Z"/>
      <path d="m94.924,20.694c-.957-1.259-2.184-2.296-3.651-3.061-1.467-.765-3.141-1.164-4.974-1.164-1.738,0-3.332.335-4.719,1.004-1.387.654-2.583,1.562-3.555,2.694-.973,1.132-1.738,2.455-2.264,3.938-.526,1.483-.797,3.061-.797,4.719,0,1.786.255,3.46.749,4.958.494,1.499,1.244,2.822,2.232,3.89.973,1.084,2.2,1.945,3.603,2.535,1.419.606,3.061.909,4.894.909,1.259,0,2.487-.175,3.635-.51,1.164-.351,2.216-.861,3.157-1.546.941-.686,1.754-1.531,2.407-2.519.67-1.004,1.148-2.152,1.403-3.412l.064-.303h-5.277l-.064.159c-.43,1.212-1.068,2.136-1.929,2.742s-2.009.909-3.428.909c-1.02,0-1.913-.175-2.647-.526s-1.339-.829-1.817-1.419-.845-1.291-1.084-2.089c-.223-.717-.335-1.483-.367-2.248h16.118c.415,0,.765-.319.813-.733.128-1.562,0-3.093-.399-4.56-.43-1.642-1.148-3.109-2.104-4.368Zm-14.38,5.835c.048-.733.207-1.419.478-2.041.303-.701.701-1.323,1.196-1.849.494-.51,1.084-.941,1.786-1.228.686-.287,1.467-.446,2.312-.446s1.562.159,2.216.478,1.228.749,1.706,1.275c.462.526.829,1.148,1.1,1.849.239.638.399,1.291.462,1.977l-11.256-.016h0Z"/>
      <path d="m136.678,20.136c-.909-1.132-2.057-2.041-3.428-2.678s-2.997-.973-4.831-.973c-.67,0-1.355.08-2.025.255-.686.159-1.339.415-1.961.733-.622.319-1.196.701-1.706,1.164-.351.319-.686.654-.957,1.036v-10.841c0-.446-.367-.813-.813-.813v-.016h-4.735v32.492h4.464c.446,0,.813-.367.813-.813v-1.802c.319.494.701.925,1.132,1.275.59.494,1.259.877,1.993,1.18.717.303,1.499.51,2.296.622.797.096,1.594.159,2.36.159,1.722,0,3.236-.351,4.512-1.02,1.259-.686,2.328-1.594,3.173-2.726.829-1.132,1.451-2.439,1.865-3.906.399-1.467.606-2.997.606-4.544,0-1.706-.223-3.316-.67-4.815-.494-1.515-1.18-2.838-2.089-3.97Zm-2.822,8.673c0,1.004-.112,1.961-.335,2.886-.207.925-.574,1.754-1.068,2.487-.494.717-1.132,1.307-1.897,1.77-.749.446-1.69.67-2.806.67l-.016-.016c-.988,0-1.865-.207-2.615-.59-.749-.399-1.403-.941-1.945-1.61-.542-.686-.957-1.515-1.212-2.455-.271-.957-.415-2.025-.415-3.141,0-2.391.526-4.321,1.578-5.739,1.02-1.403,2.583-2.104,4.607-2.104.988,0,1.865.223,2.631.654.765.446,1.403,1.02,1.913,1.738.51.733.909,1.578,1.164,2.519.287.941.415,1.929.415,2.933Z"/>
      <rect x="158.137" y="17.091" width="5.548" height="23.388"/>
      <path d="m184.698,8.8v10.841c-.335-.43-.701-.813-1.132-1.148-.59-.462-1.244-.861-1.945-1.164-.701-.303-1.435-.526-2.184-.654-.749-.143-1.499-.207-2.216-.207-1.259,0-2.519.239-3.747.701s-2.328,1.212-3.284,2.216-1.722,2.28-2.296,3.794c-.574,1.531-.861,3.364-.861,5.452,0,1.738.223,3.364.67,4.879.446,1.515,1.132,2.854,2.041,3.954.909,1.116,2.057,2.009,3.428,2.662,1.371.638,2.997.973,4.831.973,1.483,0,2.902-.303,4.225-.877,1.132-.494,2.041-1.275,2.71-2.312v1.77c0,.446.367.813.813.813h4.464V7.987h-4.735c-.415,0-.781.367-.781.813Zm.191,19.96c0,.973-.128,1.945-.367,2.886-.239.925-.622,1.77-1.116,2.519-.494.733-1.148,1.339-1.913,1.786s-1.706.67-2.774.67h-.016c-1.052,0-1.961-.207-2.726-.638-.765-.43-1.403-.988-1.881-1.69-.494-.717-.877-1.531-1.116-2.455-.239-.925-.367-1.865-.367-2.822,0-1.004.112-2.009.335-2.981.223-.957.574-1.817,1.068-2.583.494-.749,1.148-1.371,1.913-1.833s1.738-.701,2.87-.701c1.881,0,3.348.67,4.448,2.041,1.084,1.403,1.642,3.332,1.642,5.803Z"/>
      <path d="m210.876,19.705c-.638-1.004-1.483-1.786-2.519-2.296-1.244-.622-2.615-.941-4.097-.941h0c-1.658,0-3.157.319-4.48.957-1.307.638-2.439,1.499-3.348,2.567s-1.61,2.328-2.089,3.731c-.478,1.403-.717,2.902-.717,4.464,0,1.674.191,3.252.59,4.719.399,1.467,1.02,2.79,1.881,3.922s1.961,2.041,3.284,2.678c1.307.654,2.933.973,4.783.973,1.451,0,2.838-.367,4.097-1.1,1.052-.606,1.945-1.435,2.615-2.455v2.774c0,1.817-.446,3.22-1.355,4.177-.893.941-2.344,1.435-4.305,1.435-.638,0-1.259-.032-1.833-.112-.558-.064-1.084-.223-1.531-.462-.462-.239-.845-.558-1.18-.973s-.574-.957-.701-1.626l-.032-.191h-5.516l.032.271c.128,1.371.526,2.535,1.196,3.491.67.941,1.515,1.706,2.503,2.28.973.574,2.073.988,3.268,1.228,1.18.239,2.375.351,3.523.351,3.683,0,6.553-.877,8.529-2.615s2.981-4.4,2.981-7.908v-22.575h-5.548l-.032,3.236h0Zm-5.931,16.294c-1.004,0-1.881-.207-2.599-.638-.717-.415-1.323-.973-1.786-1.658-.462-.686-.829-1.467-1.052-2.344s-.351-1.786-.351-2.71.096-1.865.303-2.806c.207-.925.526-1.77.988-2.487.446-.717,1.052-1.307,1.786-1.754.717-.446,1.626-.67,2.71-.67s1.961.207,2.694.59c.749.399,1.355.941,1.817,1.61.462.686.829,1.483,1.052,2.36.223.893.351,1.817.351,2.774,0,.941-.112,1.913-.335,2.838s-.558,1.77-1.036,2.487c-.462.717-1.068,1.307-1.817,1.738-.733.462-1.658.67-2.726.67Z"/>
      <path d="m241.965,25.046c-.43-1.626-1.148-3.093-2.104-4.352-.957-1.259-2.184-2.296-3.651-3.061-1.467-.765-3.141-1.164-4.974-1.164-1.738,0-3.332.335-4.719,1.004s-2.583,1.562-3.555,2.694c-.973,1.132-1.738,2.455-2.264,3.938-.526,1.483-.797,3.061-.797,4.719,0,1.786.255,3.46.749,4.958.494,1.499,1.244,2.822,2.232,3.89.973,1.084,2.2,1.945,3.619,2.535,1.419.606,3.061.909,4.894.909,1.259,0,2.487-.175,3.635-.51,1.164-.351,2.216-.861,3.157-1.546s1.754-1.531,2.407-2.519c.67-1.004,1.148-2.152,1.403-3.412l.064-.303h-5.261l-.064.159c-.43,1.212-1.068,2.136-1.929,2.742s-2.009.909-3.428.909c-1.02,0-1.913-.175-2.647-.526s-1.339-.829-1.817-1.419-.845-1.291-1.084-2.089c-.223-.717-.351-1.483-.367-2.248h16.086c.415,0,.781-.319.813-.733.128-1.562-.016-3.093-.399-4.576Zm-13.041-3.651c.686-.287,1.467-.446,2.312-.446s1.562.159,2.216.478,1.228.749,1.69,1.275.845,1.148,1.1,1.849c.239.638.399,1.291.478,1.977h-11.256c.048-.733.207-1.419.478-2.041.303-.701.701-1.323,1.196-1.849.494-.526,1.1-.941,1.786-1.244Z"/>
      <path d="m161.103,8.258h-.271c-1.594,0-2.902,1.307-2.902,2.886s1.307,2.886,2.902,2.886h.271c1.594,0,2.902-1.307,2.902-2.886,0-1.594-1.291-2.886-2.902-2.886Z"/>
      <path d="m113.162,16.883h-.016c-7.397.191-12.977,4.56-12.977,10.187v12.611c0,.446.367.813.813.813h4.432v-12.595c0-3.364,3.667-5.995,8.322-5.995h.239v-4.209c0-.446-.367-.813-.813-.813Z"/>
      <path d="m154.869,16.883h-.016c-7.397.191-12.977,4.56-12.977,10.187v12.611c0,.446.367.813.813.813h4.432v-12.595c0-3.364,3.667-5.995,8.322-5.995h.239v-4.209c0-.446-.367-.813-.813-.813Z"/>
    </g>
    <g>
      <path d="m16.325,14.109s-.43.781-1.004,2.104h0c-1.084,2.503-2.647,6.967-2.647,11.638h7.429s-.08-3.38,1.435-7.477c2.806-7.637,10.379-12.946,19.004-12.946V0c-10.363,0-19.418,5.692-24.217,14.109Z"/>
      <path d="m15.321,16.198h0c-.191-.255-.383-.494-.59-.733-3.539-4.193-8.832-6.855-14.731-6.855v7.429c6.521,0,11.83,5.293,11.83,11.814h7.429c.016-4.384-1.467-8.418-3.938-11.654Z"/>
      <path d="m12.675,27.852h6.584c0-4.368-1.467-8.418-3.938-11.638-1.084,2.503-2.647,6.951-2.647,11.638Z"/>
    </g>
  </g>
  <g>
    <path d="m242.395,17.123v-.654h3.061v.654h-1.132v3.077h-.781v-3.077s-1.148,0-1.148,0Z"/>
    <path d="m245.966,16.469h.973l1.02,2.503h.048l1.02-2.503h.973v3.715h-.765v-2.423h-.032l-.957,2.407h-.526l-.957-2.407h-.032v2.439h-.765v-3.731h0Z"/>
  </g>
</svg>