<svg xmlns="http://www.w3.org/2000/svg" width="250" height="49.566" data-name="Capa 5" viewBox="0 0 250 49.566" fill="currentColor"><path d="M49.2 20.694a10.85 10.85 0 0 0-3.651-3.061c-1.467-.765-3.141-1.164-4.974-1.164-1.738 0-3.332.335-4.719 1.004-1.387.654-2.583 1.562-3.555 2.694s-1.738 2.455-2.264 3.938-.797 3.061-.797 4.719c0 1.786.255 3.46.749 4.958s1.244 2.822 2.232 3.89a10.05 10.05 0 0 0 3.603 2.535c1.419.606 3.061.909 4.894.909a13 13 0 0 0 3.635-.51c1.164-.351 2.216-.861 3.157-1.546s1.754-1.531 2.407-2.519a9.5 9.5 0 0 0 1.403-3.412l.064-.303h-5.277l-.064.159c-.43 1.212-1.068 2.136-1.929 2.742s-2.009.909-3.428.909c-1.02 0-1.913-.175-2.647-.526s-1.339-.829-1.817-1.419-.845-1.291-1.084-2.089a8.9 8.9 0 0 1-.367-2.248h16.086a.826.826 0 0 0 .813-.733c.128-1.562 0-3.093-.399-4.56-.415-1.642-1.116-3.109-2.073-4.368Zm-14.396 5.835a6.1 6.1 0 0 1 .478-2.041 6.4 6.4 0 0 1 1.196-1.849 5.25 5.25 0 0 1 1.786-1.228c.686-.287 1.467-.446 2.312-.446s1.562.159 2.216.478 1.228.749 1.69 1.275.829 1.148 1.1 1.849a7.6 7.6 0 0 1 .462 1.977l-11.24-.016ZM73.879 17.091l-4.607.016-.048.175-5.102 15.927a.314.314 0 0 1-.303.223.31.31 0 0 1-.303-.223l-5.309-15.943-.048-.175h-4.863a.81.81 0 0 0-.67.351.79.79 0 0 0-.096.749l7.924 21.762c.112.319.43.526.765.526h4.879a.8.8 0 0 0 .765-.542l7.78-21.762a.83.83 0 0 0-.096-.749.86.86 0 0 0-.67-.335ZM94.924 20.694a10.85 10.85 0 0 0-3.651-3.061c-1.467-.765-3.141-1.164-4.974-1.164-1.738 0-3.332.335-4.719 1.004a10.6 10.6 0 0 0-3.555 2.694 12.3 12.3 0 0 0-2.264 3.938 14 14 0 0 0-.797 4.719c0 1.786.255 3.46.749 4.958s1.244 2.822 2.232 3.89a10.05 10.05 0 0 0 3.603 2.535c1.419.606 3.061.909 4.894.909a13 13 0 0 0 3.635-.51 10.4 10.4 0 0 0 3.157-1.546 9.8 9.8 0 0 0 2.407-2.519 9.5 9.5 0 0 0 1.403-3.412l.064-.303h-5.277l-.064.159c-.43 1.212-1.068 2.136-1.929 2.742s-2.009.909-3.428.909c-1.02 0-1.913-.175-2.647-.526s-1.339-.829-1.817-1.419-.845-1.291-1.084-2.089a8.9 8.9 0 0 1-.367-2.248h16.118a.826.826 0 0 0 .813-.733c.128-1.562 0-3.093-.399-4.56a12.4 12.4 0 0 0-2.104-4.368Zm-14.38 5.835a6.1 6.1 0 0 1 .478-2.041 6.4 6.4 0 0 1 1.196-1.849 5.25 5.25 0 0 1 1.786-1.228c.686-.287 1.467-.446 2.312-.446s1.562.159 2.216.478 1.228.749 1.706 1.275a6.1 6.1 0 0 1 1.1 1.849 7.6 7.6 0 0 1 .462 1.977l-11.256-.016ZM136.678 20.136c-.909-1.132-2.057-2.041-3.428-2.678s-2.997-.973-4.831-.973c-.67 0-1.355.08-2.025.255a8.6 8.6 0 0 0-1.961.733 7.8 7.8 0 0 0-1.706 1.164c-.351.319-.686.654-.957 1.036V8.832a.817.817 0 0 0-.813-.813v-.016h-4.735v32.492h4.464a.817.817 0 0 0 .813-.813V37.88c.319.494.701.925 1.132 1.275.59.494 1.259.877 1.993 1.18.717.303 1.499.51 2.296.622.797.096 1.594.159 2.36.159 1.722 0 3.236-.351 4.512-1.02a9.7 9.7 0 0 0 3.173-2.726c.829-1.132 1.451-2.439 1.865-3.906.399-1.467.606-2.997.606-4.544 0-1.706-.223-3.316-.67-4.815-.494-1.515-1.18-2.838-2.089-3.97Zm-2.822 8.673c0 1.004-.112 1.961-.335 2.886a7.3 7.3 0 0 1-1.068 2.487 6.1 6.1 0 0 1-1.897 1.77c-.749.446-1.69.67-2.806.67l-.016-.016c-.988 0-1.865-.207-2.615-.59a6.3 6.3 0 0 1-1.945-1.61 6.8 6.8 0 0 1-1.212-2.455 11.6 11.6 0 0 1-.415-3.141c0-2.391.526-4.321 1.578-5.739 1.02-1.403 2.583-2.104 4.607-2.104.988 0 1.865.223 2.631.654a6.04 6.04 0 0 1 1.913 1.738c.51.733.909 1.578 1.164 2.519.287.941.415 1.929.415 2.933ZM158.137 17.091h5.548v23.388h-5.548zM184.698 8.8v10.841a6.4 6.4 0 0 0-1.132-1.148 9 9 0 0 0-1.945-1.164 9.6 9.6 0 0 0-2.184-.654 12 12 0 0 0-2.216-.207c-1.259 0-2.519.239-3.747.701s-2.328 1.212-3.284 2.216-1.722 2.28-2.296 3.794c-.574 1.531-.861 3.364-.861 5.452q0 2.607.67 4.879c.446 1.515 1.132 2.854 2.041 3.954.909 1.116 2.057 2.009 3.428 2.662 1.371.638 2.997.973 4.831.973a10.55 10.55 0 0 0 4.225-.877 6.06 6.06 0 0 0 2.71-2.312v1.77c0 .446.367.813.813.813h4.464V7.987h-4.735c-.415 0-.781.367-.781.813Zm.191 19.96c0 .973-.128 1.945-.367 2.886a8.4 8.4 0 0 1-1.116 2.519c-.494.733-1.148 1.339-1.913 1.786s-1.706.67-2.774.67h-.016c-1.052 0-1.961-.207-2.726-.638-.765-.43-1.403-.988-1.881-1.69a7.7 7.7 0 0 1-1.116-2.455 11.2 11.2 0 0 1-.367-2.822c0-1.004.112-2.009.335-2.981.223-.957.574-1.817 1.068-2.583.494-.749 1.148-1.371 1.913-1.833s1.738-.701 2.87-.701c1.881 0 3.348.67 4.448 2.041 1.084 1.403 1.642 3.332 1.642 5.803ZM210.876 19.705c-.638-1.004-1.483-1.786-2.519-2.296-1.244-.622-2.615-.941-4.097-.941-1.658 0-3.157.319-4.48.957-1.307.638-2.439 1.499-3.348 2.567s-1.61 2.328-2.089 3.731a13.8 13.8 0 0 0-.717 4.464c0 1.674.191 3.252.59 4.719s1.02 2.79 1.881 3.922 1.961 2.041 3.284 2.678c1.307.654 2.933.973 4.783.973a8.06 8.06 0 0 0 4.097-1.1 7.7 7.7 0 0 0 2.615-2.455v2.774c0 1.817-.446 3.22-1.355 4.177-.893.941-2.344 1.435-4.305 1.435a13.4 13.4 0 0 1-1.833-.112 4.3 4.3 0 0 1-1.531-.462c-.462-.239-.845-.558-1.18-.973s-.574-.957-.701-1.626l-.032-.191h-5.516l.032.271q.192 2.057 1.196 3.491a8 8 0 0 0 2.503 2.28c.973.574 2.073.988 3.268 1.228 1.18.239 2.375.351 3.523.351 3.683 0 6.553-.877 8.529-2.615s2.981-4.4 2.981-7.908V16.469h-5.548l-.032 3.236Zm-5.931 16.294c-1.004 0-1.881-.207-2.599-.638a5.4 5.4 0 0 1-1.786-1.658c-.462-.686-.829-1.467-1.052-2.344s-.351-1.786-.351-2.71.096-1.865.303-2.806c.207-.925.526-1.77.988-2.487a5.4 5.4 0 0 1 1.786-1.754c.717-.446 1.626-.67 2.71-.67s1.961.207 2.694.59a5.1 5.1 0 0 1 1.817 1.61 7.6 7.6 0 0 1 1.052 2.36c.223.893.351 1.817.351 2.774 0 .941-.112 1.913-.335 2.838s-.558 1.77-1.036 2.487a5.3 5.3 0 0 1-1.817 1.738c-.733.462-1.658.67-2.726.67ZM241.965 25.046a12.4 12.4 0 0 0-2.104-4.352 10.85 10.85 0 0 0-3.651-3.061c-1.467-.765-3.141-1.164-4.974-1.164-1.738 0-3.332.335-4.719 1.004s-2.583 1.562-3.555 2.694a12.3 12.3 0 0 0-2.264 3.938 14 14 0 0 0-.797 4.719c0 1.786.255 3.46.749 4.958s1.244 2.822 2.232 3.89c.973 1.084 2.2 1.945 3.619 2.535 1.419.606 3.061.909 4.894.909a13 13 0 0 0 3.635-.51c1.164-.351 2.216-.861 3.157-1.546s1.754-1.531 2.407-2.519a9.5 9.5 0 0 0 1.403-3.412l.064-.303H236.8l-.064.159c-.43 1.212-1.068 2.136-1.929 2.742s-2.009.909-3.428.909c-1.02 0-1.913-.175-2.647-.526s-1.339-.829-1.817-1.419-.845-1.291-1.084-2.089a8.2 8.2 0 0 1-.367-2.248h16.086c.415 0 .781-.319.813-.733a13.7 13.7 0 0 0-.399-4.576Zm-13.041-3.651c.686-.287 1.467-.446 2.312-.446s1.562.159 2.216.478 1.228.749 1.69 1.275.845 1.148 1.1 1.849c.239.638.399 1.291.478 1.977h-11.256a6.1 6.1 0 0 1 .478-2.041 6.4 6.4 0 0 1 1.196-1.849 5.45 5.45 0 0 1 1.786-1.244ZM161.103 8.258h-.271c-1.594 0-2.902 1.307-2.902 2.886s1.307 2.886 2.902 2.886h.271c1.594 0 2.902-1.307 2.902-2.886a2.89 2.89 0 0 0-2.902-2.886M113.162 16.883h-.016c-7.397.191-12.977 4.56-12.977 10.187v12.611c0 .446.367.813.813.813h4.432V27.899c0-3.364 3.667-5.995 8.322-5.995h.239v-4.209a.817.817 0 0 0-.813-.813ZM154.869 16.883h-.016c-7.397.191-12.977 4.56-12.977 10.187v12.611c0 .446.367.813.813.813h4.432V27.899c0-3.364 3.667-5.995 8.322-5.995h.239v-4.209a.817.817 0 0 0-.813-.813ZM16.325 14.109s-.43.781-1.004 2.104c-1.084 2.503-2.647 6.967-2.647 11.638h7.429s-.08-3.38 1.435-7.477c2.806-7.637 10.379-12.946 19.004-12.946V0C30.179 0 21.124 5.692 16.325 14.109"/><path d="M15.321 16.198a13 13 0 0 0-.59-.733C11.192 11.272 5.899 8.61 0 8.61v7.429c6.521 0 11.83 5.293 11.83 11.814h7.429c.016-4.384-1.467-8.418-3.938-11.654Z"/><path d="M12.675 27.852h6.584c0-4.368-1.467-8.418-3.938-11.638-1.084 2.503-2.647 6.951-2.647 11.638ZM242.395 17.123v-.654h3.061v.654h-1.132V20.2h-.781v-3.077zM245.966 16.469h.973l1.02 2.503h.048l1.02-2.503H250v3.715h-.765v-2.423h-.032l-.957 2.407h-.526l-.957-2.407h-.032V20.2h-.765z"/></svg>