<svg xmlns="http://www.w3.org/2000/svg" width="250" height="46.176" data-name="Capa 4" viewBox="0 0 250 46.176" fill="currentColor"><path fill-rule="evenodd" d="M20.128 32.085h-4.691c-1.909 0-3.74.742-5.09 2.064-1.35 1.321-2.108 3.113-2.108 4.982s.758 3.661 2.108 4.982a7.28 7.28 0 0 0 5.09 2.064h4.691c1.909 0 3.74-.742 5.09-2.064 1.35-1.321 2.108-3.113 2.108-4.982s-.758-3.661-2.108-4.982a7.28 7.28 0 0 0-5.09-2.064m5.016-15.988a7.8 7.8 0 0 0-2.511-1.645 7.9 7.9 0 0 0-2.962-.578H7.74a7.82 7.82 0 0 0-5.473 2.222C.815 17.52 0 19.45 0 21.462s.815 3.942 2.267 5.365a7.82 7.82 0 0 0 5.473 2.222h11.932a7.9 7.9 0 0 0 2.962-.578 7.7 7.7 0 0 0 2.511-1.645 7.6 7.6 0 0 0 1.678-2.462 7.46 7.46 0 0 0 0-5.808 7.6 7.6 0 0 0-1.678-2.462Zm-3.248-5.257a5.42 5.42 0 1 0 0-10.84 5.42 5.42 0 0 0 0 10.84m72.507 29.94H77.796V28.106h14.801a.845.845 0 0 0 .845-.845v-2.845a.845.845 0 0 0-.845-.845H77.796V11.379h16.605a.845.845 0 0 0 .845-.845V7.566a.845.845 0 0 0-.845-.845H73.864a.845.845 0 0 0-.845.845v37.025c0 .467.378.845.845.845l20.54.002a.845.845 0 0 0 .845-.845v-2.968a.845.845 0 0 0-.845-.845ZM248.984 6.415l-1.051 3.273-1.032-3.273h-1.051v4.029h.627V7.045l1.134 3.399h.627l1.134-3.399v3.399h.627V6.415zm-6.784.504h1.259v3.522h.63V6.919h1.259v-.504H242.2zm-7.411 17.995-6.623-1.807-.009-.002a5.9 5.9 0 0 1-4.576-6.027v-.022c0-1.874.65-3.369 1.775-4.398 1.13-1.033 2.785-1.638 4.863-1.638h.017a6.87 6.87 0 0 1 7.06 5.879.86.86 0 0 0 .847.74h2.946a.837.837 0 0 0 .829-.973c-.431-2.581-1.492-5.157-3.406-7.093-1.923-1.945-4.677-3.211-8.417-3.211-3.346 0-6.175 1.055-8.17 2.94-1.995 1.884-3.121 4.564-3.124 7.74a10.276 10.276 0 0 0 7.81 10.564l6.393 1.687.018.003a5.83 5.83 0 0 1 4.795 5.798v.005c0 2.076-.603 3.589-1.713 4.591-1.118 1.009-2.824 1.565-5.165 1.565h-.015a7.7 7.7 0 0 1-7.932-7.333.86.86 0 0 0-.911-.822l-2.852.19a.837.837 0 0 0-.784.837 12.11 12.11 0 0 0 3.629 8.574 12.13 12.13 0 0 0 8.993 3.46c3.513-.002 6.429-1.021 8.472-2.906 2.048-1.889 3.171-4.605 3.173-7.901a10.43 10.43 0 0 0-7.923-10.444ZM216.065 6.719h-3.33a.84.84 0 0 0-.734.427l-9.838 17.274-9.839-17.274a.85.85 0 0 0-.734-.427h-3.451a.845.845 0 0 0-.732 1.267l12.365 21.465v15.138c0 .466.378.845.844.845l3.096.002a.845.845 0 0 0 .845-.845V29.45l12.241-21.467a.846.846 0 0 0-.734-1.264Zm-38.129 18.195-6.623-1.807-.01-.002a5.9 5.9 0 0 1-4.577-6.027v-.022c0-1.874.649-3.369 1.775-4.398 1.13-1.033 2.785-1.638 4.863-1.638h.017a6.87 6.87 0 0 1 7.06 5.879.86.86 0 0 0 .847.74h2.946a.837.837 0 0 0 .829-.973c-.431-2.581-1.492-5.157-3.406-7.093-1.923-1.945-4.676-3.211-8.417-3.211-3.346 0-6.174 1.055-8.169 2.94-1.995 1.884-3.121 4.564-3.124 7.74a10.28 10.28 0 0 0 7.809 10.564l6.393 1.687.018.003a5.821 5.821 0 0 1 4.794 5.798v.005c0 2.076-.603 3.589-1.713 4.591-1.118 1.009-2.825 1.565-5.165 1.565h-.015a7.69 7.69 0 0 1-7.339-4.71 7.7 7.7 0 0 1-.594-2.622.86.86 0 0 0-.913-.822l-2.861.196a.837.837 0 0 0-.782.837 12.12 12.12 0 0 0 7.78 11.234c1.546.593 3.197.863 4.851.793 3.513-.002 6.429-1.021 8.472-2.906 2.048-1.889 3.172-4.605 3.173-7.901a10.43 10.43 0 0 0-7.923-10.444Zm-21.072 15.865h-16.607V28.105h14.801a.845.845 0 0 0 .845-.845v-2.845a.845.845 0 0 0-.845-.845h-14.801V11.378h16.604a.845.845 0 0 0 .845-.845V7.566a.845.845 0 0 0-.845-.845h-20.537a.845.845 0 0 0-.845.845v37.025c0 .466.378.845.845.845l20.539.002a.845.845 0 0 0 .845-.845v-2.967a.845.845 0 0 0-.845-.845Zm-29.006-34.06h-2.968a.845.845 0 0 0-.845.845v28.77L106.362 7.127a.85.85 0 0 0-.723-.407h-3.254a.845.845 0 0 0-.845.845V44.59c0 .466.378.845.845.845h3.087a.845.845 0 0 0 .845-.845V15.822L124 45.029a.84.84 0 0 0 .723.407l3.134-.002a.844.844 0 0 0 .844-.845V7.564a.845.845 0 0 0-.845-.845ZM65.995 24.534H54.003a.845.845 0 0 0-.845.845v2.963c0 .467.379.845.845.845h8.182v2.547c0 3.566-1.136 5.931-2.739 7.407-1.611 1.484-3.747 2.119-5.825 2.119s-4.213-.635-5.825-2.119c-1.603-1.476-2.739-3.841-2.739-7.407V20.419c0-3.566 1.136-5.931 2.739-7.407 1.612-1.484 3.747-2.119 5.825-2.119h.02a8.11 8.11 0 0 1 8.386 6.962.86.86 0 0 0 .846.741h2.978a.835.835 0 0 0 .835-.915A12.7 12.7 0 0 0 53.623 6.238c-3.97 0-7.287 1.429-9.609 3.937-2.32 2.507-3.613 6.056-3.613 10.244v11.313c0 4.189 1.326 7.738 3.659 10.244 2.336 2.509 5.652 3.939 9.56 3.939 3.968 0 7.285-1.429 9.607-3.939 2.319-2.507 3.613-6.057 3.613-10.244v-6.353a.845.845 0 0 0-.845-.845"/></svg>