<?xml version="1.0" encoding="UTF-8"?>
<svg id="uuid-afbed6e5-8b3b-4c17-a972-da01f95e24d0" data-name="Capa 4" xmlns="http://www.w3.org/2000/svg" width="250" height="46.176" viewBox="0 0 250 46.176">
  <path d="m20.128,32.085h-4.691c-1.909,0-3.74.742-5.09,2.064-1.35,1.321-2.108,3.113-2.108,4.982s.758,3.661,2.108,4.982c1.35,1.321,3.181,2.064,5.09,2.064h4.691c1.909,0,3.74-.742,5.09-2.064,1.35-1.321,2.108-3.113,2.108-4.982s-.758-3.661-2.108-4.982c-1.35-1.321-3.181-2.064-5.09-2.064Zm5.016-15.988c-.719-.705-1.572-1.263-2.511-1.645-.939-.381-1.945-.578-2.962-.578H7.74c-2.053,0-4.021.799-5.473,2.222C.815,17.52,0,19.45,0,21.462s.815,3.942,2.267,5.365c1.451,1.423,3.42,2.222,5.473,2.222h11.932c1.016,0,2.023-.196,2.962-.578.939-.381,1.792-.94,2.511-1.645.719-.705,1.289-1.541,1.678-2.462.389-.921.589-1.907.589-2.904s-.2-1.983-.589-2.904c-.389-.921-.959-1.757-1.678-2.462Zm-3.248-5.257c2.993,0,5.42-2.426,5.42-5.42S24.889,0,21.896,0s-5.42,2.427-5.42,5.42,2.427,5.42,5.42,5.42Zm72.507,29.94h-16.607v-12.674h14.801c.467,0,.845-.378.845-.845v-2.845c0-.467-.378-.845-.845-.845h-14.801v-12.192h16.605c.467,0,.845-.378.845-.845v-2.968c0-.467-.378-.845-.845-.845h-20.537c-.467,0-.845.378-.845.845v37.025c0,.467.378.845.845.845l20.54.002c.466,0,.845-.378.845-.845v-2.968c0-.467-.378-.845-.845-.845ZM248.984,6.415l-1.051,3.273-1.032-3.273h-1.051v4.029h.627v-3.399l1.134,3.399h.627l1.134-3.399v3.399h.627v-4.029h-1.016Zm-6.784.504h1.259v3.522h.63v-3.522h1.259v-.504h-3.148v.504Zm-7.411,17.995l-6.623-1.807-.009-.002c-1.348-.309-2.545-1.081-3.381-2.183-.836-1.102-1.259-2.462-1.195-3.844v-.011s0-.011,0-.011c0-1.874.65-3.369,1.775-4.398,1.13-1.033,2.785-1.638,4.863-1.638h.017c1.751-.066,3.46.539,4.78,1.692,1.238,1.081,2.044,2.568,2.28,4.187.06.409.407.74.847.74h2.946c.509,0,.916-.453.829-.973-.431-2.581-1.492-5.157-3.406-7.093-1.923-1.945-4.677-3.211-8.417-3.211-3.346,0-6.175,1.055-8.17,2.94-1.995,1.884-3.121,4.564-3.124,7.74-.136,2.394.569,4.76,1.994,6.689,1.426,1.932,3.484,3.303,5.816,3.875l6.393,1.687.018.003c1.356.244,2.581.96,3.459,2.021.878,1.062,1.351,2.4,1.336,3.777v.005c0,2.076-.603,3.589-1.713,4.591-1.118,1.009-2.824,1.565-5.165,1.565h-.015c-1.033.033-2.062-.143-3.025-.517-.963-.374-1.842-.937-2.583-1.658-.741-.72-1.329-1.583-1.73-2.535-.351-.834-.552-1.722-.594-2.623-.022-.465-.416-.855-.911-.822l-2.852.19c-.433.029-.786.386-.784.837.009,1.536.311,3.057.889,4.482.624,1.537,1.556,2.93,2.74,4.092,1.184,1.162,2.594,2.069,4.142,2.664,1.546.594,3.196.865,4.851.796,3.513-.002,6.429-1.021,8.472-2.906,2.048-1.889,3.171-4.605,3.173-7.901.072-2.384-.674-4.721-2.116-6.621-1.442-1.901-3.492-3.25-5.807-3.823Zm-18.724-18.195h-3.33c-.304,0-.584.163-.734.427l-9.838,17.274-9.839-17.274c-.151-.264-.431-.427-.734-.427h-3.451c-.65,0-1.057.703-.732,1.267l12.365,21.465v15.138c0,.466.378.845.844.845l3.096.002c.467,0,.845-.378.845-.845v-15.141l12.241-21.467c.321-.563-.086-1.264-.734-1.264Zm-38.129,18.195l-6.623-1.807-.01-.002c-1.348-.309-2.545-1.081-3.382-2.183-.836-1.102-1.259-2.462-1.195-3.844v-.011s0-.011,0-.011c0-1.874.649-3.369,1.775-4.398,1.13-1.033,2.785-1.638,4.863-1.638h.017c1.751-.066,3.461.539,4.78,1.692,1.238,1.081,2.044,2.568,2.28,4.187.06.409.407.74.847.74h2.946c.509,0,.916-.453.829-.973-.431-2.581-1.492-5.157-3.406-7.093-1.923-1.945-4.676-3.211-8.417-3.211-3.346,0-6.174,1.055-8.169,2.94-1.995,1.884-3.121,4.564-3.124,7.74-.136,2.394.569,4.76,1.993,6.689,1.427,1.932,3.484,3.303,5.816,3.875l6.393,1.687.018.003c1.356.244,2.581.96,3.459,2.021.878,1.062,1.351,2.4,1.335,3.777v.005c0,2.076-.603,3.589-1.713,4.591-1.118,1.009-2.825,1.565-5.165,1.565h-.015c-1.033.033-2.062-.143-3.025-.517-.964-.374-1.842-.937-2.583-1.658-.741-.72-1.33-1.583-1.731-2.535-.351-.833-.551-1.721-.594-2.622-.022-.465-.418-.856-.913-.822l-2.861.196c-.432.03-.785.387-.782.837.01,1.536.313,3.057.892,4.482.625,1.537,1.559,2.929,2.743,4.091,1.185,1.161,2.596,2.067,4.145,2.661,1.546.593,3.197.863,4.851.793,3.513-.002,6.429-1.021,8.472-2.906,2.048-1.889,3.172-4.605,3.173-7.901.072-2.384-.674-4.721-2.116-6.621-1.442-1.901-3.492-3.25-5.807-3.823Zm-21.072,15.865h-16.607v-12.674h14.801c.467,0,.845-.378.845-.845v-2.845c0-.467-.378-.845-.845-.845h-14.801v-12.192h16.604c.467,0,.845-.378.845-.845v-2.967c0-.467-.378-.845-.845-.845h-20.537c-.467,0-.845.378-.845.845v37.025c0,.466.378.845.845.845l20.539.002c.467,0,.845-.379.845-.845v-2.967c0-.467-.378-.845-.845-.845ZM127.858,6.719h-2.968c-.466,0-.845.378-.845.845v28.77l-17.683-29.207c-.153-.253-.428-.407-.723-.407h-3.254c-.467,0-.845.378-.845.845v37.025c0,.466.378.845.845.845h3.087c.467,0,.845-.378.845-.845V15.822l17.683,29.207c.153.253.428.408.723.407l3.134-.002c.467,0,.844-.379.844-.845V7.564c0-.467-.378-.845-.845-.845Zm-61.863,17.815h-11.992c-.466,0-.845.378-.845.845v2.963c0,.467.379.845.845.845h8.182v2.547c0,3.566-1.136,5.931-2.739,7.407-1.611,1.484-3.747,2.119-5.825,2.119s-4.213-.635-5.825-2.119c-1.603-1.476-2.739-3.841-2.739-7.407v-11.315c0-3.566,1.136-5.931,2.739-7.407,1.612-1.484,3.747-2.119,5.825-2.119h.02c2.069-.091,4.095.614,5.661,1.968,1.484,1.284,2.45,3.059,2.725,4.994.058.411.407.741.846.741h2.978c.484,0,.885-.413.835-.915-.309-3.133-1.773-6.046-4.114-8.166-2.445-2.213-5.654-3.388-8.949-3.277-3.97,0-7.287,1.429-9.609,3.937-2.32,2.507-3.613,6.056-3.613,10.244v11.313c0,4.189,1.326,7.738,3.659,10.244,2.336,2.509,5.652,3.939,9.56,3.939,3.968,0,7.285-1.429,9.607-3.939,2.319-2.507,3.613-6.057,3.613-10.244v-6.353c0-.467-.378-.845-.845-.845Z" fill-rule="evenodd"/>
</svg>