<svg xmlns="http://www.w3.org/2000/svg" width="250" height="79.803" data-name="Capa 5" viewBox="0 0 250 79.803" fill="currentColor"><path d="M110.578 5.483h-5.292l-.196 11.564h-4.845v4.938h4.841v23.888c0 5.362 2.512 8.315 7.072 8.315a10.9 10.9 0 0 0 5.398-1.533l.119-.066V47.61l-.38.31a6.14 6.14 0 0 1-3.791 1.502c-2.42 0-2.927-2.015-2.927-3.705V21.994h7.797v-4.938h-7.797V5.483Zm-21.443 48.04h5.439V0h-5.439zm-6.51-4.092c-1.533 0-1.839-1.131-1.839-3.084v-19.43c0-6.641-3.746-10.595-10.026-10.595-7.493 0-10.898 5.763-10.958 11.474v.235h5.023v-.237a7.25 7.25 0 0 1 1.921-5.197 5.23 5.23 0 0 1 3.806-1.582c3 0 4.792 2.341 4.792 6.263V29.1l-5.979 2.837c-6.779 3.171-11.222 5.749-11.222 12.439 0 5.873 3.695 9.819 9.195 9.819a11 11 0 0 0 8.424-4.354 5.62 5.62 0 0 0 5.722 4.354 8.3 8.3 0 0 0 3.094-.639l.143-.06v-4.744l-.341.187a3.16 3.16 0 0 1-1.756.49Zm-7.28-4.184a8.76 8.76 0 0 1-6.811 4.392 4.718 4.718 0 0 1-4.949-5.207c0-4.479 3.917-6.864 7.322-8.443l4.438-2.072v11.331Zm-28.435-.32c-2.071 3.004-4.453 4.657-6.709 4.657-2.961 0-4.015-2.903-4.015-5.619V17.046h-5.441v27.176c0 6.338 2.861 9.974 7.85 9.974a10.46 10.46 0 0 0 8.424-4.356l.092 3.683h5.238V17.046h-5.441zm82.327-23.62-.274-4.257h-5.167v36.528h5.441V27.286c2.466-5.005 5.654-5.696 8.712-5.698l1.289.104v-5.315h-1.476c-3.874-.003-6.008 1.207-8.525 4.93m15.048 32.217h5.439V17.047h-5.439v36.475Zm49.942-21.666-.14.191.109-.206c-3.414-1.762-5.832-3.247-5.832-6.321a4.33 4.33 0 0 1 4.69-4.449 4.77 4.77 0 0 1 3.658 1.507 6.66 6.66 0 0 1 1.395 5.148l-.026.255h5.039l.012-.221a11.34 11.34 0 0 0-2.788-8.496 9.7 9.7 0 0 0-7.237-2.895c-5.873 0-9.974 3.888-9.974 9.454 0 6.066 4.863 8.668 8.412 10.568s6.873 3.731 6.873 7.515a5.33 5.33 0 0 1-5.519 5.506c-3.482 0-5.987-2.927-6.089-7.118v-.228h-5.081v.238c.17 7.363 4.443 11.937 11.166 11.937a10.105 10.105 0 0 0 10.75-10.595c.003-6.803-5.001-9.456-9.417-11.789ZM18.793 20.36a7.67 7.67 0 0 0-7.089-3.986 9.84 9.84 0 0 0-7.923 4.257C1.273 23.991.001 28.929.001 35.31c0 13.964 5.643 18.938 10.926 18.938a8.86 8.86 0 0 0 7.229-3.406v28.962h5.499V17.046h-4.712l-.148 3.314Zm-.637 24.995c-1.514 2.737-3.35 4.012-5.778 4.012-4.496 0-6.774-4.748-6.774-14.108 0-8.998 2.565-14.159 7.033-14.159a5.94 5.94 0 0 1 5.519 4.301zm193.201 5.243c.117-.215.175-.457.17-.702a1.18 1.18 0 0 0-.341-.904 1.43 1.43 0 0 0-1.022-.329h-1.94v3.893h.962v-1.39h.736l.656 1.39h1.085l-.831-1.51c.222-.083.408-.241.524-.448Zm-.962-.308a1.1 1.1 0 0 1-.528.1h-.681v-.991h.681a.95.95 0 0 1 .528.121.44.44 0 0 1 .182.4.38.38 0 0 1-.184.37zm-39.42-2.219a4.3 4.3 0 0 1-3.235 1.347c-4.187 0-6.399-4.879-6.399-14.107s2.29-14.243 6.451-14.243a4.04 4.04 0 0 1 3.014 1.252 8.66 8.66 0 0 1 1.923 5.565h5.149a12.84 12.84 0 0 0-3.019-8.891A9.1 9.1 0 0 0 168 16.322c-7.803 0-12.09 6.725-12.09 18.938s4.169 18.938 11.736 18.938c6.095 0 9.907-4.501 10.388-12.124H173a9.28 9.28 0 0 1-2.023 5.997Zm-26.638-36.32h5.388V5.435h-5.388zm67.936 36.351a3.3 3.3 0 0 0-1.102-.708 3.83 3.83 0 0 0-2.742 0 3.4 3.4 0 0 0-1.105.708c-.317.31-.565.681-.736 1.09a3.88 3.88 0 0 0 0 2.828c.169.414.419.79.736 1.105.316.31.692.554 1.105.715a3.83 3.83 0 0 0 2.742 0 3.3 3.3 0 0 0 1.102-.715 3.3 3.3 0 0 0 .737-1.105 3.88 3.88 0 0 0 0-2.828 3.3 3.3 0 0 0-.737-1.09m.066 3.644a2.8 2.8 0 0 1-.582.891 2.5 2.5 0 0 1-.868.576 2.95 2.95 0 0 1-2.141 0 2.5 2.5 0 0 1-.868-.576 2.7 2.7 0 0 1-.582-.891 3.12 3.12 0 0 1 0-2.273c.134-.332.332-.635.582-.891.245-.25.542-.448.868-.576a2.95 2.95 0 0 1 2.141 0c.327.129.623.325.868.576s.448.559.582.891a3.12 3.12 0 0 1 0 2.273M243.26 5.244l-4.705 16.652h-.06l-5.047-16.652h-11.164l-3.823 6.796-4.048-6.796h-5.676l6.6 10.679-7.242 11.963h5.226l4.645-7.917 4.809 7.917h8.565V12.189h.06q.179.986.341 1.688c.162.702.21.901.307 1.299l.32 1.136.351 1.18 3.362 10.388h4.405l3.39-10.388q.373-1.255.695-2.42.35-1.3.56-2.629h.06v15.443H250V5.236zm-16.383 20.315-5.907-9.608 5.907-9.805z"/></svg>