<?xml version="1.0" encoding="UTF-8"?>
<svg id="uuid-58e3362f-1d3f-4ee2-ab6c-20aa85b2ab72" data-name="Capa 5" xmlns="http://www.w3.org/2000/svg" width="250" height="79.803" viewBox="0 0 250 79.803">
  <path d="m110.578,5.483h-5.292l-.196,11.564h-4.845v4.938h4.841v23.888c0,5.362,2.512,8.315,7.072,8.315,1.902-.031,3.763-.559,5.398-1.533l.119-.066v-4.979l-.38.31c-1.055.918-2.393,1.448-3.791,1.502-2.42,0-2.927-2.015-2.927-3.705v-23.723h7.797v-4.938h-7.797V5.483Zm-21.443,48.04h5.439V0h-5.439v53.523Zm-6.51-4.092c-1.533,0-1.839-1.131-1.839-3.084v-19.43c0-6.641-3.746-10.595-10.026-10.595-7.493,0-10.898,5.763-10.958,11.474v.235h5.023v-.237c-.073-1.918.618-3.787,1.921-5.197.998-1.026,2.374-1.598,3.806-1.582,3,0,4.792,2.341,4.792,6.263v1.822l-5.979,2.837c-6.779,3.171-11.222,5.749-11.222,12.439,0,5.873,3.695,9.819,9.195,9.819,3.322-.104,6.418-1.705,8.424-4.354.608,2.641,3.014,4.473,5.722,4.354,1.063-.012,2.113-.229,3.094-.639l.143-.06v-4.744l-.341.187c-.525.332-1.135.503-1.756.49Zm-7.28-4.184c-1.415,2.49-3.959,4.13-6.811,4.392-2.601.142-4.825-1.851-4.968-4.452-.014-.252-.007-.505.019-.755,0-4.479,3.917-6.864,7.322-8.443l4.438-2.072v11.331Zm-28.435-.32c-2.071,3.004-4.453,4.657-6.709,4.657-2.961,0-4.015-2.903-4.015-5.619v-26.919h-5.441v27.176c0,6.338,2.861,9.974,7.85,9.974,3.343-.022,6.474-1.641,8.424-4.356l.092,3.683h5.238V17.046h-5.441l.002,27.881Zm82.327-23.62l-.274-4.257h-5.167v36.528h5.441v-26.292c2.466-5.005,5.654-5.696,8.712-5.698l1.289.104v-5.315h-1.476c-3.874-.003-6.008,1.207-8.525,4.93Zm15.048,32.217h5.439V17.047h-5.439v36.475Zm49.942-21.666h0l-.14.191.109-.206c-3.414-1.762-5.832-3.247-5.832-6.321-.037-1.235.451-2.427,1.347-3.276.896-.85,2.112-1.277,3.343-1.173,1.38-.051,2.714.499,3.658,1.507,1.162,1.447,1.667,3.312,1.395,5.148l-.026.255h5.039l.012-.221c.274-3.094-.734-6.166-2.788-8.496-1.902-1.934-4.526-2.983-7.237-2.895-5.873,0-9.974,3.888-9.974,9.454,0,6.066,4.863,8.668,8.412,10.568,3.549,1.9,6.873,3.731,6.873,7.515.099,2.942-2.206,5.407-5.148,5.506-.124.004-.247.004-.371,0-3.482,0-5.987-2.927-6.089-7.118v-.228h-5.081v.238c.17,7.363,4.443,11.937,11.166,11.937,2.878.187,5.698-.862,7.751-2.886s3.145-4.829,2.999-7.709c.003-6.803-5.001-9.456-9.417-11.789ZM18.793,20.36c-1.407-2.575-4.158-4.123-7.089-3.986-3.173.059-6.123,1.644-7.923,4.257-2.508,3.36-3.78,8.298-3.78,14.679,0,13.964,5.643,18.938,10.926,18.938,2.813.077,5.497-1.187,7.229-3.406v28.962h5.499V17.046h-4.712l-.148,3.314Zm-.637,24.995c-1.514,2.737-3.35,4.012-5.778,4.012-4.496,0-6.774-4.748-6.774-14.108,0-8.998,2.565-14.159,7.033-14.159,2.578.082,4.809,1.82,5.519,4.301v19.954Zm193.201,5.243c.117-.215.175-.457.17-.702.02-.335-.104-.666-.341-.904-.285-.238-.651-.356-1.022-.329h-1.94v3.893h.962v-1.39h.736l.656,1.39h1.085l-.831-1.51c.222-.083.408-.241.524-.448Zm-.962-.308c-.165.076-.346.111-.528.1h-.681v-.991h.681c.184-.012.367.03.528.121.127.092.197.244.182.4.017.148-.055.293-.184.37h.002Zm-39.42-2.219c-.839.887-2.015,1.377-3.235,1.347-4.187,0-6.399-4.879-6.399-14.107s2.29-14.243,6.451-14.243c1.136-.026,2.23.429,3.014,1.252,1.271,1.574,1.951,3.542,1.923,5.565h5.149c.152-3.238-.926-6.415-3.019-8.891-1.809-1.816-4.299-2.786-6.859-2.672-7.803,0-12.09,6.725-12.09,18.938s4.169,18.938,11.736,18.938c6.095,0,9.907-4.501,10.388-12.124h-5.034c.049,2.174-.667,4.297-2.023,5.997Zm-26.638-36.32h5.388v-6.316h-5.388v6.316Zm67.936,36.351c-.317-.31-.691-.547-1.102-.708-.883-.338-1.859-.338-2.742,0-.411.161-.787.402-1.105.708-.317.31-.565.681-.736,1.09-.356.909-.356,1.919,0,2.828.169.414.419.79.736,1.105.316.31.692.554,1.105.715.883.338,1.859.338,2.742,0,.412-.162.787-.405,1.102-.715.315-.31.569-.691.737-1.105.356-.909.356-1.919,0-2.828-.17-.409-.421-.78-.737-1.09Zm.066,3.644c-.134.332-.332.635-.582.891-.245.252-.542.448-.868.576-.688.268-1.452.268-2.141,0-.327-.128-.623-.324-.868-.576-.25-.255-.448-.559-.582-.891-.286-.731-.286-1.543,0-2.273.134-.332.332-.635.582-.891.245-.25.542-.448.868-.576.688-.268,1.452-.268,2.141,0,.327.129.623.325.868.576.245.25.448.559.582.891.286.731.286,1.543,0,2.273Zm30.921-46.502l-4.705,16.652h-.06l-5.047-16.652h-11.164l-3.823,6.796-4.048-6.796h-5.676l6.6,10.679-7.242,11.963h5.226l4.645-7.917,4.809,7.917h8.565v-15.697h.06c.119.657.233,1.22.341,1.688s.21.901.307,1.299l.32,1.136.351,1.18,3.362,10.388h4.405l3.39-10.388c.249-.837.48-1.643.695-2.42.233-.866.42-1.744.56-2.629h.06v15.443h4.809V5.236l-6.74.007Zm-16.383,20.315l-5.907-9.608,5.907-9.805v19.413Z"/>
</svg>