<svg xmlns="http://www.w3.org/2000/svg" width="250" height="53.757" data-name="Capa 4" viewBox="0 0 250 53.757" fill="currentColor"><path d="M122.575 13.313a4.28 4.28 0 0 0-4.29 4.267v.017c-.002.561.11 1.117.33 1.634a4.28 4.28 0 0 0 3.949 2.641h-.008v.002a4.28 4.28 0 1 0 .02-8.56ZM246.88 25.338h-4.801v-9.511h-6.891v9.511h-4.593v5.805h4.593v18.593h6.888V31.144h4.801zm-116.764 24.4h6.89V13.563h-6.89zm-10.992.017h6.856V25.364h-6.856zm-42.659-20.79-4.327-1.385c-2.728-.772-4.127-2.107-4.127-3.961 0-2.297 2.1-3.917 4.982-3.917 2.98 0 4.868 1.584 4.979 4.127h7.272c-.118-6.43-4.982-10.745-12.165-10.745s-12.398 4.508-12.398 10.73c0 4.931 3.135 8.387 9.303 10.308l4.457 1.241c3.302.947 4.668 2.237 4.591 4.405-.05 2.498-2.237 4.127-5.613 4.127-3.674 0-5.512-2.182-5.715-4.418h-7.37c.133 6.429 5.465 10.847 13.07 10.847 6.151 0 12.857-3.302 12.964-10.517.151-5.25-3.172-8.913-9.903-10.842m31.749-.306-.459-.649c-2.17-3.09-6.567-3.182-7.056-3.182v.002c-7.013.18-12.553 6.01-12.373 13.023.173 6.761 5.613 12.2 12.373 12.373 2.039 0 5.591-.99 7.034-3.192l.459-.699v3.395h6.861V25.357h-6.84v3.302Zm-1.008 11.26a6.15 6.15 0 0 1-5.775 3.774 6.16 6.16 0 1 1 0-12.303 6.15 6.15 0 0 1 5.774 8.529Zm87.818 9.837h6.861V25.365h-6.861zm25.135-24.952a8.02 8.02 0 0 0-6.974 4.036l.01.013-.459.874v-4.368h-6.934v24.38h6.89V36.825c0-3.466 1.681-5.309 4.828-5.309 2.834 0 4.558 1.992 4.558 5.189v13.024h6.909V35.115c.032-6.637-3.114-10.309-8.827-10.309Zm-64.414-11.276h-14.826v36.218h7.35V37.072h7.49c8.727 0 11.845-6.324 11.845-11.749-.017-8.144-5.964-11.795-11.86-11.795Zm-.312 17.21-.041.002h-7.138V19.898h7.352c3.215 0 4.67 3.164 4.67 5.408a5.146 5.146 0 0 1-4.843 5.431Zm42.194-17.345a4.277 4.277 0 0 0-3.463 4.191v.015a4.28 4.28 0 0 0 4.27 4.277 4.276 4.276 0 0 0 4.21-5.105 4.277 4.277 0 0 0-5.018-3.377Zm-12.97 12.275a12.2 12.2 0 0 0-4.916-.835v-.002a12.68 12.68 0 0 0-11.714 7.83c-2.679 6.468.392 13.883 6.859 16.562 6.468 2.679 13.883-.392 16.562-6.859a12.7 12.7 0 0 0 .965-4.88 12.225 12.225 0 0 0-7.757-11.815Zm-.529 15.911a5.75 5.75 0 0 1-3.972 1.851h-.414a5.928 5.928 0 0 1-5.855-7.04 5.92 5.92 0 0 1 4.62-4.685 5.92 5.92 0 0 1 7.121 5.754 5.74 5.74 0 0 1-1.499 4.119ZM38.409 38.016l-.279-1.664h15.422l-1.697-2.862H37.651l-.279-1.664h13.485l-1.697-2.862H36.893l-.279-1.664h11.564l-1.714-2.879H36.132l-.279-1.664h9.629l-1.697-2.862h-8.412l-.279-1.664h7.692l-1.697-2.879h-6.477l-.279-1.664h5.757l-1.697-2.862h-4.54l-.279-1.664h3.836L35.696 6.3h-2.602l-.279-1.664h1.899L32.068.173 32.039 0l-.042.053-.028-.048.012.069L.38 39.467h38.272v-.005h16.747l-.865-1.448H38.409Zm-1.332 1.93H0l1.182.416h35.962zm.25 1.564H4.46l1.182.416h31.752zm.266 1.564H8.92l1.182.416H37.66zm.266 1.564H13.38l1.182.416h23.365zm.25 1.564H17.84l1.182.416h19.154zm.266 1.564H22.299l1.181.416h14.961l-.067-.416Zm.266 1.564H26.759l1.182.416h10.767zm.25 1.564h-7.672l1.181.416h6.557l-.067-.416Zm-3.212 1.564 1.182.416h2.363l-.067-.416zm5.275 1.298 2.23-2.197h-2.596zm-.433-2.613H43.6l1.265-1.248h-4.56zm-.283-1.664h5.042l1.265-1.248h-6.523zm-.283-1.664h7.023l1.265-1.248h-8.504zm-.283-1.664h8.986l1.265-1.248H39.472zm-.283-1.664h10.95l1.265-1.248H39.189zm-.266-1.664H52.02l1.265-1.248H38.907zm-.283-1.664h14.877l1.681-1.664H38.557zm210.814 4.898a2.53 2.53 0 0 0-.947-.974v.002a2.65 2.65 0 0 0-1.37-.353 2.7 2.7 0 0 0-1.378.353c-.401.23-.731.566-.952.972a2.8 2.8 0 0 0-.344 1.391c-.007.484.112.961.344 1.385.223.403.552.736.952.965.42.239.895.36 1.378.353.479.008.954-.113 1.37-.353.398-.23.724-.564.947-.965.233-.424.351-.902.344-1.385a2.8 2.8 0 0 0-.344-1.391m-.744 3.012h-.005a2.28 2.28 0 0 1-3.155 0 2.49 2.49 0 0 1 0-3.242 2.28 2.28 0 0 1 3.16 0 2.48 2.48 0 0 1 0 3.242m-.586-1.651.002-.013a.83.83 0 0 0 .181-.561.81.81 0 0 0-.265-.642 1.02 1.02 0 0 0-.707-.236h-1.256v2.912h.581v-1.157h.31l.751 1.157.689-.013-.812-1.157a.9.9 0 0 0 .528-.289Zm-1.458-.166v-.742h.634a.5.5 0 0 1 .31.086.33.33 0 0 1 .123.28.34.34 0 0 1-.123.283.5.5 0 0 1-.31.093z"/></svg>