<?xml version="1.0" encoding="UTF-8"?>
<svg id="uuid-052116af-3a6d-4057-a204-c0b85ac5c732" data-name="Capa 4" xmlns="http://www.w3.org/2000/svg" width="250" height="53.757" viewBox="0 0 250 53.757">
  <path d="m122.575,13.313c-2.363-.005-4.283,1.904-4.29,4.267v.017c-.002.561.11,1.117.33,1.634.662,1.597,2.22,2.639,3.949,2.641h-.008v.002c2.364.005,4.285-1.906,4.29-4.27.005-2.364-1.906-4.285-4.27-4.29Zm124.305,12.025h-4.801v-9.511h-6.891v9.511h-4.593v5.805h4.593v18.593h6.888v-18.592h4.801l.003-5.806Zm-116.764,24.4h6.89V13.563h-6.89v36.175Zm-10.992.017h6.856v-24.391h-6.856v24.391Zm-42.659-20.79l-4.327-1.385c-2.728-.772-4.127-2.107-4.127-3.961,0-2.297,2.1-3.917,4.982-3.917,2.98,0,4.868,1.584,4.979,4.127h7.272c-.118-6.43-4.982-10.745-12.165-10.745s-12.398,4.508-12.398,10.73c0,4.931,3.135,8.387,9.303,10.308l4.457,1.241c3.302.947,4.668,2.237,4.591,4.405-.05,2.498-2.237,4.127-5.613,4.127-3.674,0-5.512-2.182-5.715-4.418h-7.37c.133,6.429,5.465,10.847,13.07,10.847,6.151,0,12.857-3.302,12.964-10.517.151-5.25-3.172-8.913-9.903-10.842Zm31.749-.306l-.459-.649c-2.17-3.09-6.567-3.182-7.056-3.182v.002c-7.013.18-12.553,6.01-12.373,13.023.173,6.761,5.613,12.2,12.373,12.373,2.039,0,5.591-.99,7.034-3.192l.459-.699v3.395h6.861v-24.373h-6.84v3.302Zm-1.008,11.26c-.972,2.32-3.259,3.815-5.775,3.774-3.397.168-6.287-2.451-6.455-5.848-.168-3.397,2.45-6.287,5.848-6.455.202-.01.405-.01.607,0,3.396-.058,6.195,2.648,6.253,6.043.015.853-.148,1.699-.479,2.486Zm87.818,9.837h6.861v-24.391h-6.861v24.391Zm25.135-24.952c-2.881-.005-5.543,1.536-6.974,4.036l.01.013-.459.874v-4.368h-6.934v24.38h6.89v-12.914c0-3.466,1.681-5.309,4.828-5.309,2.834,0,4.558,1.992,4.558,5.189v13.024h6.909v-14.614c.032-6.637-3.114-10.309-8.827-10.309Zm-64.414-11.276h-14.826v36.218h7.35v-12.674h7.49c8.727,0,11.845-6.324,11.845-11.749-.017-8.144-5.964-11.795-11.86-11.795Zm-.312,17.21c-.014,0-.028.001-.041.002h-7.138v-10.842h7.352c3.215,0,4.67,3.164,4.67,5.408.162,2.837-2.006,5.269-4.843,5.431Zm42.194-17.345c-.277.054-.549.136-.81.244-1.602.657-2.649,2.216-2.653,3.947v.015c0,2.359,1.911,4.273,4.27,4.277,2.362.008,4.283-1.9,4.291-4.262,0-.283-.026-.566-.081-.843-.453-2.318-2.7-3.83-5.018-3.377Zm-12.97,12.275c-1.564-.613-3.237-.898-4.916-.835v-.002c-5.129,0-9.752,3.091-11.714,7.83-2.679,6.468.392,13.883,6.859,16.562,6.468,2.679,13.883-.392,16.562-6.859.641-1.547.969-3.206.965-4.88.184-5.185-2.926-9.922-7.757-11.815Zm-.529,15.911c-1.028,1.117-2.456,1.782-3.972,1.851h-.414c-3.274.018-5.942-2.622-5.96-5.896-.002-.384.033-.767.105-1.144.45-2.353,2.274-4.202,4.62-4.685,3.202-.663,6.335,1.396,6.998,4.598.079.381.12.768.123,1.156.065,1.517-.474,2.999-1.499,4.119Zm-145.719-3.563l-.279-1.664h15.422l-1.697-2.862h-14.204l-.279-1.664h13.485l-1.697-2.862h-12.267l-.279-1.664h11.564l-1.714-2.879h-10.332l-.279-1.664h9.629l-1.697-2.862h-8.412l-.279-1.664h7.692l-1.697-2.879h-6.477l-.279-1.664h5.757l-1.697-2.862h-4.54l-.279-1.664h3.836l-1.714-2.862h-2.602l-.279-1.664h1.899L32.068.173l-.029-.173-.042.053-.028-.048.012.069L.38,39.467h38.272v-.005s16.747,0,16.747,0l-.865-1.448h-16.125Zm-1.332,1.93H0l1.182.416h35.962l-.067-.416Zm.25,1.564H4.46l1.182.416h31.752l-.067-.416Zm.266,1.564H8.92l1.182.416h27.558l-.067-.416Zm.266,1.564H13.38l1.182.416h23.365l-.067-.416Zm.25,1.564h-20.269l1.182.416h19.154l-.067-.416Zm.266,1.564h-16.076l1.181.416h14.961l-.067-.416Zm.266,1.564h-11.882l1.182.416h10.767l-.067-.416Zm.25,1.564h-7.672l1.181.416h6.557l-.067-.416Zm-3.212,1.564l1.182.416h2.363l-.067-.416h-3.478Zm5.275,1.298l2.23-2.197h-2.596l.366,2.197Zm-.433-2.613h3.079l1.265-1.248h-4.56l.216,1.248Zm-.283-1.664h5.042l1.265-1.248h-6.523l.216,1.248Zm-.283-1.664h7.023l1.265-1.248h-8.504l.216,1.248Zm-.283-1.664h8.986l1.265-1.248h-10.451l.2,1.248Zm-.283-1.664h10.95l1.265-1.248h-12.415l.2,1.248Zm-.266-1.664h12.897l1.265-1.248h-14.378l.216,1.248Zm-.283-1.664h14.877l1.681-1.664h-16.841l.283,1.664Zm210.814,4.898c-.221-.404-.547-.741-.947-.974v.002c-.416-.24-.89-.361-1.37-.353-.483-.007-.959.113-1.378.353-.401.23-.731.566-.952.972-.233.426-.351.905-.344,1.391-.007.484.112.961.344,1.385.223.403.552.736.952.965.42.239.895.36,1.378.353.479.008.954-.113,1.37-.353.398-.23.724-.564.947-.965.233-.424.351-.902.344-1.385.007-.486-.112-.965-.344-1.391Zm-.744,3.012h-.005c-.883.844-2.273.844-3.155,0-.801-.932-.801-2.31,0-3.242.883-.849,2.278-.849,3.16,0,.805.931.805,2.311,0,3.242Zm-.586-1.651s.002-.013.002-.013c.127-.159.191-.358.181-.561.012-.243-.085-.478-.265-.642-.198-.165-.45-.25-.707-.236h-1.256v2.912h.581v-1.157h.31l.751,1.157.689-.013-.812-1.157c.204-.033.39-.135.528-.289Zm-1.458-.166v-.742h.634c.11-.005.218.025.31.086.085.067.131.172.123.28.007.109-.039.214-.123.283-.09.065-.199.098-.31.093h-.634Z"/>
</svg>