<?xml version="1.0" encoding="UTF-8"?>
<svg id="uuid-c885df99-9b30-4858-8ea6-ba7c76f2fce6" data-name="Capa 5" xmlns="http://www.w3.org/2000/svg" width="250" height="92.965" viewBox="0 0 250 92.965">
  <path d="m247.882,7.501c-1.401-1.543-3.266-2.333-5.527-2.333s-4.129.79-5.457,2.369c-1.291,1.508-1.974,3.41-1.974,5.635v41.421c0,3.589-.825,6.748-2.476,9.368-1.651,2.62-3.842,4.666-6.497,6.102-2.656,1.436-5.564,2.154-8.686,2.154-2.872,0-5.6-.718-8.149-2.154-2.548-1.436-4.594-3.482-6.138-6.102-1.543-2.62-2.333-5.779-2.333-9.404V13.173c0-2.261-.826-4.164-2.441-5.707-1.615-1.508-3.446-2.261-5.42-2.261-2.405,0-4.415.754-5.958,2.297-1.579,1.543-2.369,3.446-2.369,5.707v41.421c0,6.461,1.4,12.312,4.2,17.301,2.8,5.025,6.676,9.009,11.594,11.809,4.882,2.836,10.625,4.235,17.05,4.235,6.388,0,12.132-1.436,16.976-4.271,4.883-2.836,8.759-6.82,11.524-11.809,2.763-5.025,4.2-10.84,4.2-17.301V13.173c-.036-2.225-.719-4.128-2.118-5.671Z"/>
  <path d="m172.002,7.466c-1.615-1.436-3.518-2.154-5.671-2.154-3.338,0-5.779,1.651-7.25,4.989l-20.244,52.01-22.111-52.046c-1.472-3.374-3.912-5.097-7.25-5.097-1.651,0-3.41.682-5.205,1.974-1.867,1.4-2.836,3.374-2.836,5.922,0,.503.036,1.041.143,1.579.072.61.287,1.184.539,1.723l28.356,66.619c.682,1.579,1.723,2.764,3.015,3.625,1.292.826,2.656,1.292,4.056,1.364,1.507,0,2.979-.395,4.379-1.22,1.436-.826,2.584-2.118,3.338-3.841l28.392-66.439c.502-1.184.754-2.369.754-3.482.036-2.225-.79-4.092-2.405-5.528Z"/>
  <path d="m61.271,80.581c-4.451,1.938-9.153,2.979-14.034,3.051-18.557.359-34.781-13.173-37.473-31.515C6.389,29.182,24.156,9.368,46.482,9.368c.826,0,1.651.036,2.441.072-1.4-4.092.215-7.609,1.579-9.225v-.036c-1.328-.108-2.656-.179-4.02-.179C20.854,0,0,20.854,0,46.482s20.854,46.482,46.482,46.482c6.533,0,12.85-1.328,18.772-3.948,2.512-1.113,3.553-4.164,2.154-6.604-1.22-2.082-3.912-2.8-6.138-1.831Z"/>
  <path d="m83.955,19.096c-4.487-6.102-10.373-10.948-17.014-14.214.503,3.733-1.041,6.82-3.41,8.686v.036c5.025,2.584,9.476,6.353,12.886,11.019,1.544,2.082,4.451,2.548,6.533,1.005,2.082-1.543,2.512-4.451,1.005-6.533Z"/>
  <path d="m57.718,10.734c2.477,0,4.487-2.01,4.487-4.488s-2.01-4.487-4.487-4.487-4.488,2.01-4.488,4.487,2.01,4.488,4.488,4.488Z"/>
  <path d="m60.591,21.432l-2.513,9.476c1.579,1.149,2.979,2.548,4.164,4.164,2.477,3.374,3.769,7.358,3.769,11.522,0,7.717-4.558,14.752-11.629,17.875-2.477,1.113-5.133,1.651-7.897,1.651-10.768,0-19.526-8.758-19.526-19.526,0-10.337,8.076-18.808,18.234-19.454l2.512-9.368c-.395-.036-.79-.036-1.22-.036-15.901,0-28.859,12.958-28.859,28.859s12.958,28.858,28.859,28.858c4.056,0,7.968-.826,11.665-2.441,10.445-4.63,17.193-15.004,17.193-26.418,0-6.174-1.938-12.096-5.599-17.05-2.476-3.374-5.599-6.138-9.153-8.112Z"/>
  <path d="m50.467,33.24c1.328.359,2.729-.431,3.051-1.795l3.159-11.883c.359-1.328-.431-2.728-1.795-3.051-1.328-.359-2.729.431-3.052,1.795l-3.159,11.883c-.323,1.328.467,2.693,1.795,3.051Z"/>
</svg>