<svg xmlns="http://www.w3.org/2000/svg" width="250" height="92.965" data-name="Capa 5" viewBox="0 0 250 92.965" fill="currentColor"><path d="M247.882 7.501c-1.401-1.543-3.266-2.333-5.527-2.333s-4.129.79-5.457 2.369c-1.291 1.508-1.974 3.41-1.974 5.635v41.421c0 3.589-.825 6.748-2.476 9.368s-3.842 4.666-6.497 6.102c-2.656 1.436-5.564 2.154-8.686 2.154-2.872 0-5.6-.718-8.149-2.154s-4.594-3.482-6.138-6.102-2.333-5.779-2.333-9.404V13.173c0-2.261-.826-4.164-2.441-5.707-1.615-1.508-3.446-2.261-5.42-2.261-2.405 0-4.415.754-5.958 2.297q-2.369 2.315-2.369 5.707V54.63c0 6.461 1.4 12.312 4.2 17.301 2.8 5.025 6.676 9.009 11.594 11.809 4.882 2.836 10.625 4.235 17.05 4.235 6.388 0 12.132-1.436 16.976-4.271 4.883-2.836 8.759-6.82 11.524-11.809 2.763-5.025 4.2-10.84 4.2-17.301V13.173c-.036-2.225-.719-4.128-2.118-5.671ZM172.002 7.466c-1.615-1.436-3.518-2.154-5.671-2.154-3.338 0-5.779 1.651-7.25 4.989l-20.244 52.01-22.111-52.046c-1.472-3.374-3.912-5.097-7.25-5.097-1.651 0-3.41.682-5.205 1.974-1.867 1.4-2.836 3.374-2.836 5.922 0 .503.036 1.041.143 1.579.072.61.287 1.184.539 1.723l28.356 66.619a8.15 8.15 0 0 0 3.015 3.625c1.292.826 2.656 1.292 4.056 1.364 1.507 0 2.979-.395 4.379-1.22 1.436-.826 2.584-2.118 3.338-3.841l28.392-66.439c.502-1.184.754-2.369.754-3.482.036-2.225-.79-4.092-2.405-5.528ZM61.271 80.581c-4.451 1.938-9.153 2.979-14.034 3.051-18.557.359-34.781-13.173-37.473-31.515C6.389 29.182 24.156 9.368 46.482 9.368c.826 0 1.651.036 2.441.072-1.4-4.092.215-7.609 1.579-9.225V.179A49 49 0 0 0 46.482 0C20.854 0 0 20.854 0 46.482s20.854 46.482 46.482 46.482c6.533 0 12.85-1.328 18.772-3.948a4.67 4.67 0 0 0 2.154-6.604c-1.22-2.082-3.912-2.8-6.138-1.831ZM83.955 19.096A46.7 46.7 0 0 0 66.941 4.882c.503 3.733-1.041 6.82-3.41 8.686v.036a36.9 36.9 0 0 1 12.886 11.019c1.544 2.082 4.451 2.548 6.533 1.005a4.693 4.693 0 0 0 1.005-6.533ZM57.718 10.734a4.489 4.489 0 0 0 0-8.975c-2.477 0-4.488 2.01-4.488 4.487s2.01 4.488 4.488 4.488"/><path d="m60.591 21.432-2.513 9.476a19.1 19.1 0 0 1 4.164 4.164 19.33 19.33 0 0 1 3.769 11.522c0 7.717-4.558 14.752-11.629 17.875-2.477 1.113-5.133 1.651-7.897 1.651-10.768 0-19.526-8.758-19.526-19.526 0-10.337 8.076-18.808 18.234-19.454l2.512-9.368c-.395-.036-.79-.036-1.22-.036-15.901 0-28.859 12.958-28.859 28.859s12.958 28.858 28.859 28.858c4.056 0 7.968-.826 11.665-2.441 10.445-4.63 17.193-15.004 17.193-26.418 0-6.174-1.938-12.096-5.599-17.05-2.476-3.374-5.599-6.138-9.153-8.112"/><path d="M50.467 33.24c1.328.359 2.729-.431 3.051-1.795l3.159-11.883c.359-1.328-.431-2.728-1.795-3.051-1.328-.359-2.729.431-3.052 1.795l-3.159 11.883a2.54 2.54 0 0 0 1.795 3.051Z"/></svg>