<?xml version="1.0" encoding="UTF-8"?>
<svg id="uuid-43bffb63-61cc-4abc-9a14-a67c45b15b4f" data-name="Capa 1" xmlns="http://www.w3.org/2000/svg" width="250" height="50.828" viewBox="0 0 250 50.828">
  <path d="m35.825,37.356L66.75,0h-30.926v37.356Zm-5.052,13.473V13.473L0,50.828h30.773ZM15.31,15.463c8.573,0,15.463-6.889,15.463-15.463H0c0,8.573,6.736,15.463,15.31,15.463Zm35.978,19.75c-8.573,0-15.463,6.889-15.463,15.463h30.926c0-8.573-6.889-15.463-15.463-15.463Zm139.19-16.932c-6.465,0-11.592,5.127-11.592,11.815,0,6.911,4.904,11.815,12.484,11.815,4.459,0,7.357-1.56,9.363-3.567l-3.121-3.344c-1.338,1.338-3.344,2.452-6.242,2.452-4.013,0-6.242-2.006-6.911-5.573h17.389c.223-7.803-3.79-13.599-11.37-13.599Zm-6.019,10.032c.669-3.344,3.121-5.35,6.465-5.35,3.567,0,5.573,2.229,6.019,5.35h-12.484Zm31.879,0c-3.344-.892-5.35-1.338-5.35-2.898,0-1.338,1.338-2.675,4.013-2.675,2.229,0,4.013,1.115,5.127,2.675l4.013-2.229c-1.783-2.898-4.905-4.459-9.14-4.459-5.35,0-8.694,3.344-8.694,6.911,0,4.682,4.013,5.796,7.803,6.688,2.898.669,5.573,1.115,5.573,2.898,0,1.561-1.56,2.898-4.236,2.898s-4.459-1.338-5.796-3.344l-4.459,2.229c2.006,3.344,5.35,5.127,10.032,5.35,6.465,0,9.14-4.236,9.14-7.357,0-4.682-4.236-6.019-8.026-6.688Zm-106.561-10.032c-6.465,0-11.592,5.127-11.592,11.815,0,6.911,4.904,11.815,12.484,11.815,4.459,0,7.357-1.56,9.363-3.567l-3.121-3.344c-1.338,1.338-3.344,2.452-6.242,2.452h0c-4.013,0-6.242-2.006-7.134-5.573h17.612c.223-7.803-3.79-13.599-11.37-13.599Zm-6.242,10.032c.669-3.344,3.121-5.35,6.465-5.35,3.567,0,5.573,2.229,6.019,5.35h-12.484Zm137.326.446l8.917-9.586h-5.796l-10.255,11.147V8.694h-4.904v32.994h4.904v-5.796l3.79-4.236,6.911,10.032h5.573l-9.14-12.93Zm-71.115-6.911c-1.783-2.006-4.682-3.344-7.58-3.344-6.019,0-11.37,4.459-11.37,11.815,0,7.134,5.573,11.815,11.37,11.592,2.898,0,5.796-1.338,7.58-3.567v3.121h4.904V8.471h-4.904v13.376Zm-6.911,15.828c-4.013,0-7.134-3.121-7.134-7.357s3.121-7.357,7.134-7.357,7.134,3.344,7.134,7.357-3.121,7.357-7.134,7.357Zm-26.529-19.172c-5.796,0-10.478,3.79-10.478,9.809v13.153h4.904v-12.484c0-3.79,2.006-6.019,5.796-6.019s5.35,2.229,5.35,6.019v12.484h4.904v-13.153c0-6.019-4.904-9.809-10.478-9.809Zm-41.242,4.904v-4.459h-19.618v4.459h13.376l-13.599,13.822v4.459h20.064v-4.459h-13.822l13.599-13.822Z"/>
</svg>