
<svg xmlns="http://www.w3.org/2000/svg" width="250" height="58.138" viewBox="0 0 250 58.138" fill="currentColor"><path d="M58.664 40.277a17.64 17.64 0 0 0-17.687 17.687h35.374c0-9.806-7.88-17.687-17.687-17.687M76.35 0H40.976v42.728h.001zM17.512 17.687c9.806 0 17.687-7.88 17.687-17.687H0c0 9.806 7.705 17.687 17.512 17.687m17.687 40.451V15.411L0 58.138zM89.61 21.16c-7.395.001-13.259 5.865-13.259 13.515 0 7.905 5.609 13.514 14.279 13.514 5.1 0 8.415-1.784 10.71-4.08l-3.57-3.825c-1.53 1.53-3.825 2.805-7.14 2.805-4.59 0-7.14-2.294-8.16-6.374h20.145C102.87 27.79 98.28 21.16 89.61 21.16m-7.14 11.476c.765-3.825 3.57-6.119 7.395-6.119 4.08 0 6.374 2.55 6.885 6.119H82.471Zm37.482-11.22h.002zm91.544 11.219c-3.825-1.019-6.119-1.529-6.119-3.314 0-1.53 1.53-3.06 4.59-3.06 2.55 0 4.59 1.275 5.864 3.06l4.59-2.55c-2.039-3.315-5.61-5.1-10.454-5.1-6.119 0-9.944 3.825-9.944 7.905 0 5.355 4.59 6.63 8.925 7.65 3.315.765 6.374 1.275 6.374 3.315 0 1.785-1.784 3.315-4.845 3.315s-5.1-1.53-6.63-3.825l-5.1 2.55q3.441 5.737 11.475 6.119c7.395 0 10.454-4.845 10.454-8.415 0-5.355-4.845-6.885-9.18-7.65m28.05.511 10.199-10.964h-6.63l-11.73 12.75V10.195h-5.609v37.739h5.609v-6.63l4.335-4.845 7.905 11.475h6.374l-10.454-14.789ZM181.917 21.16c-7.395.001-13.259 5.865-13.259 13.515 0 7.905 5.609 13.514 14.279 13.514 5.1 0 8.415-1.784 10.71-4.08l-3.57-3.825c-1.53 1.53-3.825 2.805-7.14 2.805-4.59 0-7.14-2.294-7.905-6.374h19.89c.255-8.925-4.335-15.555-13.005-15.555m-6.885 11.476c.765-3.825 3.57-6.119 7.395-6.119 4.08 0 6.374 2.55 6.885 6.119h-14.279Zm-55.079-11.22c-6.629 0-11.984 4.335-11.984 11.22v15.045h5.609V33.402c0-4.335 2.295-6.885 6.63-6.885s6.119 2.55 6.119 6.885v14.279h5.609V32.636c0-6.884-5.608-11.219-11.984-11.22Zm38.25 3.824c-2.039-2.293-5.355-3.824-8.67-3.824-6.885 0-13.005 5.1-13.005 13.514 0 8.16 6.374 13.514 13.005 13.259 3.315 0 6.63-1.53 8.67-4.08v3.57h5.609V9.94h-5.609zm-7.905 18.105c-4.59 0-8.16-3.57-8.16-8.415s3.57-8.415 8.16-8.415 8.16 3.825 8.16 8.415-3.57 8.415-8.16 8.415"/></svg>