<svg width="24" height="24" viewBox="0 0 24 24" fill="currentColor" xmlns="http://www.w3.org/2000/svg">
  <path d="M7.75 2C5.126 2 3 4.126 3 6.75v10.5C3 19.874 5.126 22 7.75 22h8.5C18.874 22 21 19.874 21 17.25V6.75C21 4.126 18.874 2 16.25 2h-8.5zm0 2h8.5c1.519 0 2.75 1.231 2.75 2.75v8.5c0 1.519-1.231 2.75-2.75 2.75h-8.5c-1.519 0-2.75-1.231-2.75-2.75v-8.5c0-1.519 1.231-2.75 2.75-2.75zm4.25 2.5a4 4 0 1 0 0 8 4 4 0 0 0 0-8zm0 2a2 2 0 1 1 0 4 2 2 0 0 1 0-4zm3.5-.75a.75.75 0 1 1 0 1.5.75.75 0 0 1 0-1.5z"/>
</svg>
