<svg width="24" height="24" viewBox="0 0 24 24" fill="currentColor" xmlns="http://www.w3.org/2000/svg">
  <path d="M22.23 0H1.77C.792 0 0 .77 0 1.723v20.553C0 23.23.792 24 1.77 24h20.46c.978 0 1.77-.77 1.77-1.724V1.723C24 .77 23.208 0 22.23 0zM7.173 20.452H3.846V9.01h3.327v11.442zm-1.662-13.03a1.923 1.923 0 1 1 0-3.846 1.923 1.923 0 0 1 0 3.847zM20.452 20.452h-3.327v-5.604c0-1.336-.025-3.061-1.864-3.061-1.864 0-2.149 1.453-2.149 2.951v5.714h-3.328V9.01h3.198v1.559h.046c.445-.843 1.53-1.73 3.15-1.73 3.369 0 3.99 2.219 3.99 5.104v6.509z"/>
</svg>
