<?xml version="1.0" encoding="UTF-8"?>
<svg id="uuid-e387bc6d-0614-41f7-ac30-f706361e6f54" data-name="Capa 1" xmlns="http://www.w3.org/2000/svg" width="250" height="102.294" viewBox="0 0 250 102.294">
  <path d="m31.918,36.77c-8.842,0-18.638-7.388-22.16-9.827h-.356c2.871,3.043,13.307,13.414,13.307,22.189,0,12.103-8.771,27.8-11.409,32.262h.234L77.056,0h-.412c-11.073,12.54-33.885,36.77-44.726,36.77Zm33.839-15.871h-.233L0,102.294h0s.412,0,.412,0c11.073-12.54,33.885-36.77,44.726-36.77,8.842,0,18.638,7.388,22.16,9.827h.356c-2.871-3.043-13.307-13.414-13.307-22.189,0-12.103,8.771-27.8,11.409-32.262Zm182.376,13.883l-1.067,3.577-1.057-3.577h-1.878v5.411h1.281v-4.019l1.178,4.019h.952l1.179-4.031v4.031h1.279v-5.411h-1.867Zm-12.139,6.6l-.002.002c-2.653-1.518-5.679-2.279-9.08-2.279s-6.631.771-9.42,2.312c-2.789,1.541-4.988,3.684-6.598,6.429s-2.415,5.907-2.415,9.488.839,6.734,2.517,9.455c1.678,2.721,4.013,4.852,7.007,6.394s6.462,2.312,10.407,2.312c3.264,0,6.246-.557,8.945-1.666,2.698-1.111,4.909-2.663,6.631-4.659l-4.761-5.442c-2.812,3.174-6.257,4.761-10.339,4.761-2.223,0-4.194-.442-5.917-1.325-1.724-.884-3.062-2.176-4.013-3.877-.549-.981-.936-2.083-1.168-3.299h26.674v-2.993c0-3.536-.747-6.643-2.244-9.319-1.497-2.674-3.571-4.772-6.224-6.292Zm-18.239,12.959c.195-1.127.512-2.162.96-3.095.792-1.654,1.892-2.935,3.299-3.844v.002c1.405-.907,3.038-1.361,4.897-1.361s3.309.442,4.624,1.325c1.314.884,2.336,2.098,3.062,3.64.465.989.778,2.102.946,3.332h-17.787Zm22.844-14.148h1.279v-4.286h1.573v-1.125h-4.436v1.125h1.584v4.286Zm-77.868,0h-10.679l-14.691,15.131v-29.889h-8.91v48.973h8.91v-15.744l15.983,15.744h11.429l-18.424-17.768,16.382-16.446Zm-37.077-14.759h-10.753l-11.3,17.266-11.234-17.266h-10.892l16.281,23.579-17.924,25.394h10.822l12.943-19.064,12.879,19.064h10.89l-17.861-25.396,16.151-23.578Zm71.848,48.973h8.91V25.435h-8.91v48.973Zm-10.36-33.601c-2.517-1.133-5.454-1.701-8.809-1.701-2.993,0-5.781.51-8.365,1.53s-4.784,2.439-6.598,4.251l4.624,5.442c1.314-1.36,2.811-2.425,4.488-3.198,1.678-.771,3.513-1.156,5.51-1.156,2.674,0,4.796.669,6.359,2.007,1.444,1.236,2.221,2.925,2.332,5.068h-8.011c-3.311,0-6.213.454-8.706,1.361-2.495.907-4.422,2.199-5.782,3.877-1.361,1.678-2.04,3.696-2.04,6.053,0,2.176.555,4.105,1.666,5.783s2.663,2.993,4.659,3.945c1.995.952,4.307,1.429,6.939,1.429,2.902,0,5.452-.601,7.653-1.802,1.578-.862,2.902-1.97,3.978-3.311v4.025h8.163v-21.018c0-3.038-.714-5.611-2.143-7.719-1.429-2.108-3.4-3.729-5.917-4.864Zm-.442,22.402c-.22.475-.477.934-.782,1.372v-.002c-.93,1.337-2.12,2.38-3.571,3.13-1.452.747-3.085,1.123-4.897,1.123s-3.299-.442-4.455-1.325-1.734-2.051-1.734-3.503c0-1.678.747-2.958,2.244-3.844,1.497-.884,3.445-1.325,5.851-1.325h7.345v4.375Z"/>
</svg>