<svg xmlns="http://www.w3.org/2000/svg" width="24" height="28.666" data-name="Capa 1" viewBox="0 0 24 28.666" fill="currentColor"><path d="M12 28.666c-6.953 0-12-4.566-12-10.857V7.2L12 0l12 7.2v10.609c0 6.291-5.047 10.857-12 10.857M1.143 7.847v9.962c0 5.629 4.566 9.714 10.857 9.714s10.857-4.085 10.857-9.714V7.847L12 1.333z"/><path d="M12 26.095c-5.64 0-9.429-3.33-9.429-8.286V8.508L12 2.615l9.429 5.893v9.301c0 4.956-3.789 8.286-9.429 8.286M3.143 8.825v8.984c0 4.614 3.559 7.714 8.857 7.714s8.857-3.1 8.857-7.714V8.825L12 3.289z"/><path d="M13.636 20.924h-4.09a1.64 1.64 0 0 1-1.636-1.636V14.38c0-.902.734-1.636 1.636-1.636h4.09c.902 0 1.636.734 1.636 1.636v4.908c0 .902-.734 1.636-1.636 1.636m-4.09-7.361a.82.82 0 0 0-.818.818v4.908c0 .451.367.818.818.818h4.09a.82.82 0 0 0 .818-.818v-4.908a.82.82 0 0 0-.818-.818z"/><path d="M16.09 13.154h-.818V10.7c0-1.128-.917-2.045-2.045-2.045s-2.045.917-2.045 2.045v2.454h-.818V10.7c0-1.578 1.284-2.863 2.863-2.863S16.09 9.121 16.09 10.7z"/></svg>