<svg xmlns="http://www.w3.org/2000/svg" width="24" height="23.631" data-name="Capa 1" viewBox="0 0 24 23.631" fill="currentColor"><path d="M12 12.754c3.516 0 6.377-2.86 6.377-6.377S15.516 0 12 0 5.623 2.86 5.623 6.377s2.86 6.377 6.377 6.377m0-11.336c2.734 0 4.96 2.225 4.96 4.96s-2.225 4.96-4.96 4.96-4.96-2.225-4.96-4.96S9.266 1.417 12 1.417ZM12 17.005c-6.438 0-10.475 2.062-12 6.128l1.327.498C3.28 18.422 9.843 18.422 12 18.422s8.72 0 10.673 5.209L24 23.133c-1.525-4.066-5.562-6.128-12-6.128"/><path d="M12 16.296c2.728 0 6.849 0 9.495 1.984l.85-1.133c-3.023-2.267-7.428-2.267-10.344-2.267s-7.321 0-10.344 2.267l.85 1.133c2.645-1.984 6.767-1.984 9.495-1.984Z"/></svg>