<svg xmlns="http://www.w3.org/2000/svg" width="250" height="102.294" data-name="Capa 1" viewBox="0 0 250 102.294" fill="currentColor"><path d="M31.918 36.77c-8.842 0-18.638-7.388-22.16-9.827h-.356c2.871 3.043 13.307 13.414 13.307 22.189 0 12.103-8.771 27.8-11.409 32.262h.234L77.056 0h-.412C65.571 12.54 42.759 36.77 31.918 36.77m33.839-15.871h-.233L0 102.294h.412c11.073-12.54 33.885-36.77 44.726-36.77 8.842 0 18.638 7.388 22.16 9.827h.356c-2.871-3.043-13.307-13.414-13.307-22.189 0-12.103 8.771-27.8 11.409-32.262Zm182.376 13.883-1.067 3.577-1.057-3.577h-1.878v5.411h1.281v-4.019l1.178 4.019h.952l1.179-4.031v4.031H250v-5.411zm-12.139 6.6-.002.002q-3.979-2.278-9.08-2.279c-5.101-.001-6.631.771-9.42 2.312q-4.183 2.311-6.598 6.429c-2.415 4.118-2.415 5.907-2.415 9.488s.839 6.734 2.517 9.455q2.517 4.081 7.007 6.394c4.49 2.313 6.462 2.312 10.407 2.312q4.896-.001 8.945-1.666 4.047-1.666 6.631-4.659l-4.761-5.442q-4.217 4.761-10.339 4.761-3.333 0-5.917-1.325a9.44 9.44 0 0 1-4.013-3.877q-.822-1.473-1.168-3.299h26.674v-2.993q0-5.305-2.244-9.319-2.245-4.011-6.224-6.292Zm-18.239 12.959c.195-1.127.512-2.162.96-3.095q1.188-2.48 3.299-3.844v.002q2.108-1.36 4.897-1.361c2.789-.001 3.309.442 4.624 1.325q1.972 1.326 3.062 3.64.696 1.485.946 3.332h-17.787Zm22.844-14.148h1.279v-4.286h1.573v-1.125h-4.436v1.125h1.584zm-77.868 0h-10.679l-14.691 15.131V25.435h-8.91v48.973h8.91V58.664l15.983 15.744h11.429L146.349 56.64l16.382-16.446Zm-37.077-14.759h-10.753l-11.3 17.266-11.234-17.266H81.475l16.281 23.579-17.924 25.394h10.822l12.943-19.064 12.879 19.064h10.89l-17.861-25.396 16.151-23.578Zm71.848 48.973h8.91V25.435h-8.91v48.973Zm-10.36-33.601q-3.776-1.7-8.809-1.701-4.49 0-8.365 1.53c-3.875 1.53-4.784 2.439-6.598 4.251l4.624 5.442a14.8 14.8 0 0 1 4.488-3.198q2.516-1.156 5.51-1.156 4.013 0 6.359 2.007 2.166 1.854 2.332 5.068h-8.011q-4.966 0-8.706 1.361-3.742 1.36-5.782 3.877t-2.04 6.053q0 3.265 1.666 5.783c1.666 2.518 2.663 2.993 4.659 3.945q2.992 1.428 6.939 1.429 4.352 0 7.653-1.802a13.1 13.1 0 0 0 3.978-3.311v4.025h8.163V53.391q0-4.557-2.143-7.719t-5.917-4.864Zm-.442 22.402c-.22.475-.477.934-.782 1.372v-.002a9.7 9.7 0 0 1-3.571 3.13q-2.178 1.122-4.897 1.123c-2.719.001-3.299-.442-4.455-1.325s-1.734-2.051-1.734-3.503q0-2.516 2.244-3.844 2.244-1.326 5.851-1.325h7.345z"/></svg>